<?xml version="1.0" encoding="utf-8"?>
<!-- created with bpmn-js / http://bpmn.io -->
<!DOCTYPE svg PUBLIC "-//W3C//DTD SVG 1.1//EN" "http://www.w3.org/Graphics/SVG/1.1/DTD/svg11.dtd">
<svg xmlns="http://www.w3.org/2000/svg" xmlns:xlink="http://www.w3.org/1999/xlink" width="948" height="342" viewBox="154 74 948 342" version="1.1"><defs><marker id="sequenceflow-end-white-black-072ab3ancnn5afbih257u72p9" viewBox="0 0 20 20" refX="11" refY="10" markerWidth="10" markerHeight="10" orient="auto"><path d="M 1 5 L 11 10 L 1 15 Z" style="fill: black; stroke-width: 1px; stroke-linecap: round; stroke-dasharray: 10000, 1; stroke: black;"/></marker><marker id="conditional-default-flow-marker-white-black-072ab3ancnn5afbih257u72p9" viewBox="0 0 20 20" refX="0" refY="10" markerWidth="10" markerHeight="10" orient="auto"><path d="M 6 4 L 10 16" style="fill: black; stroke-width: 1px; stroke-linecap: round; stroke-dasharray: 10000, 1; stroke: black;"/></marker></defs><g class="djs-group"><g class="djs-element djs-connection" data-element-id="Flow_0d7f69t" style="display: block;"><g class="djs-visual"><path d="m  370,220L420,220 " style="fill: none; stroke-width: 2px; stroke: black; stroke-linejoin: round; marker-end: url('#sequenceflow-end-white-black-072ab3ancnn5afbih257u72p9');"/></g><polyline points="370,220 420,220 " class="djs-hit djs-hit-stroke" style="fill: none; stroke-opacity: 0; stroke: white; stroke-width: 15px;"/><rect x="364" y="214" width="62" height="12" class="djs-outline" style="fill: none;"/></g></g><g class="djs-group"><g class="djs-element djs-connection" data-element-id="Flow_1a552ad" style="display: block;"><g class="djs-visual"><path d="m  1000,220L1052,220 " style="fill: none; stroke-width: 2px; stroke: black; stroke-linejoin: round; marker-end: url('#sequenceflow-end-white-black-072ab3ancnn5afbih257u72p9');"/></g><polyline points="1000,220 1052,220 " class="djs-hit djs-hit-stroke" style="fill: none; stroke-opacity: 0; stroke: white; stroke-width: 15px;"/><rect x="994" y="214" width="64" height="12" class="djs-outline" style="fill: none;"/></g></g><g class="djs-group"><g class="djs-element djs-connection" data-element-id="Flow_0yezssg" style="display: block;"><g class="djs-visual"><path d="m  218,220L270,220 " style="fill: none; stroke-width: 2px; stroke: black; stroke-linejoin: round; marker-end: url('#sequenceflow-end-white-black-072ab3ancnn5afbih257u72p9');"/></g><polyline points="218,220 270,220 " class="djs-hit djs-hit-stroke" style="fill: none; stroke-opacity: 0; stroke: white; stroke-width: 15px;"/><rect x="212" y="214" width="64" height="12" class="djs-outline" style="fill: none;"/></g></g><g class="djs-group"><g class="djs-element djs-shape" data-element-id="Activity_1dn0uqo" style="display: block;" transform="matrix(1 0 0 1 420 80)"><g class="djs-visual"><rect x="0" y="0" width="580" height="320" rx="10" ry="10" style="stroke: black; stroke-width: 2px; fill: white; fill-opacity: 0.95;"/><text lineHeight="1.2" class="djs-label" style="font-family: Arial, sans-serif; font-size: 12px; font-weight: normal; fill: black;"><tspan x="290" y="15.799999999999999"/></text><path d="m287,301 m 0,3 l 10,0 m -10,3 l 10,0 m -10,3 l 10,0" data-marker="sequential" style="fill: white; stroke-width: 2px; stroke: black;"/></g><rect class="djs-hit djs-hit-all" x="0" y="0" width="580" height="320" style="fill: none; stroke-opacity: 0; stroke: white; stroke-width: 15px;"/><rect x="-6" y="-6" width="592" height="332" class="djs-outline" style="fill: none;"/></g><g class="djs-children"><g class="djs-group"><g class="djs-element djs-connection" data-element-id="Flow_16g7mbx" style="display: block;"><g class="djs-visual"><path d="m  700,275L700,330 L912,330 " style="fill: none; stroke-width: 2px; stroke: black; stroke-linejoin: round; marker-end: url('#sequenceflow-end-white-black-072ab3ancnn5afbih257u72p9');"/></g><polyline points="700,275 700,330 912,330 " class="djs-hit djs-hit-stroke" style="fill: none; stroke-opacity: 0; stroke: white; stroke-width: 15px;"/><rect x="694" y="269" width="224" height="67" class="djs-outline" style="fill: none;"/></g></g><g class="djs-group"><g class="djs-element djs-connection" data-element-id="Flow_195whw8" style="display: block;"><g class="djs-visual"><path d="m  830,192L830,140 L570,140 L570,192 " style="fill: none; stroke-width: 2px; stroke: black; stroke-linejoin: round; marker-end: url('#sequenceflow-end-white-black-072ab3ancnn5afbih257u72p9'); marker-start: url('#conditional-default-flow-marker-white-black-072ab3ancnn5afbih257u72p9');"/></g><polyline points="830,192 830,140 570,140 570,192 " class="djs-hit djs-hit-stroke" style="fill: none; stroke-opacity: 0; stroke: white; stroke-width: 15px;"/><rect x="564" y="134" width="272" height="64" class="djs-outline" style="fill: none;"/></g></g><g class="djs-group"><g class="djs-element djs-connection" data-element-id="Flow_1y0piwh" style="display: block;"><g class="djs-visual"><path d="m  750,217L805,217 " style="fill: none; stroke-width: 2px; stroke: black; stroke-linejoin: round; marker-end: url('#sequenceflow-end-white-black-072ab3ancnn5afbih257u72p9');"/></g><polyline points="750,217 805,217 " class="djs-hit djs-hit-stroke" style="fill: none; stroke-opacity: 0; stroke: white; stroke-width: 15px;"/><rect x="744" y="211" width="67" height="12" class="djs-outline" style="fill: none;"/></g></g><g class="djs-group"><g class="djs-element djs-connection" data-element-id="Flow_1cznipt" style="display: block;"><g class="djs-visual"><path d="m  595,217L650,217 " style="fill: none; stroke-width: 2px; stroke: black; stroke-linejoin: round; marker-end: url('#sequenceflow-end-white-black-072ab3ancnn5afbih257u72p9');"/></g><polyline points="595,217 650,217 " class="djs-hit djs-hit-stroke" style="fill: none; stroke-opacity: 0; stroke: white; stroke-width: 15px;"/><rect x="589" y="211" width="67" height="12" class="djs-outline" style="fill: none;"/></g></g><g class="djs-group"><g class="djs-element djs-connection" data-element-id="Flow_1gy0sn5" style="display: block;"><g class="djs-visual"><path d="m  855,217L912,217 " style="fill: none; stroke-width: 2px; stroke: black; stroke-linejoin: round; marker-end: url('#sequenceflow-end-white-black-072ab3ancnn5afbih257u72p9');"/></g><polyline points="855,217 912,217 " class="djs-hit djs-hit-stroke" style="fill: none; stroke-opacity: 0; stroke: white; stroke-width: 15px;"/><rect x="849" y="211" width="69" height="12" class="djs-outline" style="fill: none;"/></g></g><g class="djs-group"><g class="djs-element djs-connection" data-element-id="Flow_0n7cn3h" style="display: block;"><g class="djs-visual"><path d="m  495,217L545,217 " style="fill: none; stroke-width: 2px; stroke: black; stroke-linejoin: round; marker-end: url('#sequenceflow-end-white-black-072ab3ancnn5afbih257u72p9');"/></g><polyline points="495,217 545,217 " class="djs-hit djs-hit-stroke" style="fill: none; stroke-opacity: 0; stroke: white; stroke-width: 15px;"/><rect x="489" y="211" width="62" height="12" class="djs-outline" style="fill: none;"/></g></g><g class="djs-group"><g class="djs-element djs-shape" data-element-id="StartEvent_1" style="display: block;" transform="matrix(1 0 0 1 459 199)"><g class="djs-visual"><circle cx="18" cy="18" r="18" style="stroke: black; stroke-width: 2px; fill: white; fill-opacity: 0.95;"/></g><rect class="djs-hit djs-hit-all" x="0" y="0" width="36" height="36" style="fill: none; stroke-opacity: 0; stroke: white; stroke-width: 15px;"/><rect x="-6" y="-6" width="48" height="48" class="djs-outline" style="fill: none;"/></g></g><g class="djs-group"><g class="djs-element djs-shape" data-element-id="StartEvent_1_label" style="display: block;" transform="matrix(1 0 0 1 444 242)"><g class="djs-visual"><text lineHeight="1.2" class="djs-label" style="font-family: Arial, sans-serif; font-size: 11px; font-weight: normal; fill: black;"><tspan x="0" y="9.899999999999999">Got work item</tspan></text></g><rect class="djs-hit djs-hit-all" x="0" y="0" width="68" height="14" style="fill: none; stroke-opacity: 0; stroke: white; stroke-width: 15px;"/><rect x="-6" y="-6" width="80" height="26" class="djs-outline" style="fill: none;"/></g></g><g class="djs-group"><g class="djs-element djs-shape" data-element-id="Event_1d9l72q" style="display: block;" transform="matrix(1 0 0 1 912 199)"><g class="djs-visual"><circle cx="18" cy="18" r="18" style="stroke: black; stroke-width: 4px; fill: white; fill-opacity: 0.95;"/></g><rect class="djs-hit djs-hit-all" x="0" y="0" width="36" height="36" style="fill: none; stroke-opacity: 0; stroke: white; stroke-width: 15px;"/><rect x="-6" y="-6" width="48" height="48" class="djs-outline" style="fill: none;"/></g></g><g class="djs-group"><g class="djs-element djs-shape" data-element-id="Event_1d9l72q_label" style="display: block;" transform="matrix(1 0 0 1 890 242)"><g class="djs-visual"><text lineHeight="1.2" class="djs-label" style="font-family: Arial, sans-serif; font-size: 11px; font-weight: normal; fill: black;"><tspan x="0" y="9.899999999999999">Work completed</tspan></text></g><rect class="djs-hit djs-hit-all" x="0" y="0" width="80" height="14" style="fill: none; stroke-opacity: 0; stroke: white; stroke-width: 15px;"/><rect x="-6" y="-6" width="92" height="26" class="djs-outline" style="fill: none;"/></g></g><g class="djs-group"><g class="djs-element djs-shape" data-element-id="Robot_Work" style="display: block;" transform="matrix(1 0 0 1 650 177)"><g class="djs-visual"><rect x="0" y="0" width="100" height="80" rx="10" ry="10" style="stroke: black; stroke-width: 2px; fill: white; fill-opacity: 0.95;"/><text lineHeight="1.2" class="djs-label" style="font-family: Arial, sans-serif; font-size: 12px; font-weight: normal; fill: black;"><tspan x="36.109375" y="43.599999999999994">Work</tspan></text><g transform="matrix(1 0 0 -1 5 5) translate(2.5 -7) scale(0.19759672977412224 0.19759672977412224)"><path id="path22" style="fill:#000000;fill-opacity:1;fill-rule:nonzero;stroke:none" d="m 0,0 c 0,7.6 6.179,13.779 13.77,13.779 7.6,0 13.779,-6.179 13.779,-13.779 0,-2.769 -2.238,-5.007 -4.998,-5.007 -2.761,0 -4.999,2.238 -4.999,5.007 0,2.078 -1.695,3.765 -3.782,3.765 C 11.693,3.765 9.997,2.078 9.997,0 9.997,-2.769 7.76,-5.007 4.999,-5.007 2.238,-5.007 0,-2.769 0,0 m 57.05,-23.153 c 0,-2.771 -2.237,-5.007 -4.998,-5.007 l -46.378,0 c -2.761,0 -4.999,2.236 -4.999,5.007 0,2.769 2.238,5.007 4.999,5.007 l 46.378,0 c 2.761,0 4.998,-2.238 4.998,-5.007 M 35.379,-2.805 c -1.545,2.291 -0.941,5.398 1.35,6.943 l 11.594,7.83 c 2.273,1.58 5.398,0.941 6.943,-1.332 1.545,-2.29 0.941,-5.398 -1.35,-6.943 l -11.594,-7.83 c -0.852,-0.586 -1.829,-0.87 -2.788,-0.87 -1.607,0 -3.187,0.781 -4.155,2.202 m 31.748,-30.786 c 0,-0.945 -0.376,-1.852 -1.045,-2.522 l -8.617,-8.617 c -0.669,-0.668 -1.576,-1.045 -2.523,-1.045 l -52.833,0 c -0.947,0 -1.854,0.377 -2.523,1.045 l -8.617,8.617 c -0.669,0.67 -1.045,1.577 -1.045,2.522 l 0,52.799 c 0,0.947 0.376,1.854 1.045,2.522 l 8.617,8.619 c 0.669,0.668 1.576,1.044 2.523,1.044 l 52.833,0 c 0.947,0 1.854,-0.376 2.523,-1.044 l 8.617,-8.619 c 0.669,-0.668 1.045,-1.575 1.045,-2.522 l 0,-52.799 z m 7.334,61.086 -11.25,11.25 c -1.705,1.705 -4.018,2.663 -6.428,2.663 l -56.523,0 c -2.412,0 -4.725,-0.959 -6.43,-2.665 L -17.412,27.494 c -1.704,-1.705 -2.661,-4.016 -2.661,-6.427 l 0,-56.515 c 0,-2.411 0.958,-4.725 2.663,-6.428 l 11.25,-11.25 c 1.705,-1.705 4.017,-2.662 6.428,-2.662 l 56.515,0 c 2.41,0 4.723,0.957 6.428,2.662 l 11.25,11.25 c 1.705,1.703 2.663,4.017 2.663,6.428 l 0,56.514 c 0,2.412 -0.958,4.724 -2.663,6.429"/></g></g><rect class="djs-hit djs-hit-all" x="0" y="0" width="100" height="80" style="fill: none; stroke-opacity: 0; stroke: white; stroke-width: 15px;"/><rect x="-6" y="-6" width="112" height="92" class="djs-outline" style="fill: none;"/></g></g><g class="djs-group"><g class="djs-element djs-shape" data-element-id="Gateway_0ucihkp" style="display: block;" transform="matrix(1 0 0 1 805 192)"><g class="djs-visual"><polygon points="25,0 50,25 25,50 0,25" style="stroke: black; stroke-width: 2px; fill: white; fill-opacity: 0.95;"/><path d="m 16,15 7.42857142857143,9.714285714285715 -7.42857142857143,9.714285714285715 3.428571428571429,0 5.714285714285715,-7.464228571428572 5.714285714285715,7.464228571428572 3.428571428571429,0 -7.42857142857143,-9.714285714285715 7.42857142857143,-9.714285714285715 -3.428571428571429,0 -5.714285714285715,7.464228571428572 -5.714285714285715,-7.464228571428572 -3.428571428571429,0 z" style="fill: black; stroke-width: 1px; stroke: black;"/></g><rect class="djs-hit djs-hit-all" x="0" y="0" width="50" height="50" style="fill: none; stroke-opacity: 0; stroke: white; stroke-width: 15px;"/><rect x="-6" y="-6" width="62" height="62" class="djs-outline" style="fill: none;"/></g></g><g class="djs-group"><g class="djs-element djs-shape" data-element-id="Gateway_0ucihkp_label" style="display: block;" transform="matrix(1 0 0 1 800 252)"><g class="djs-visual"><text lineHeight="1.2" class="djs-label" style="font-family: Arial, sans-serif; font-size: 11px; font-weight: normal; fill: black;"><tspan x="0" y="9.899999999999999">Completed?</tspan></text></g><rect class="djs-hit djs-hit-all" x="0" y="0" width="60" height="14" style="fill: none; stroke-opacity: 0; stroke: white; stroke-width: 15px;"/><rect x="-6" y="-6" width="72" height="26" class="djs-outline" style="fill: none;"/></g></g><g class="djs-group"><g class="djs-element djs-shape" data-element-id="Event_0yatf1o" style="display: block;" transform="matrix(1 0 0 1 912 312)"><g class="djs-visual"><circle cx="18" cy="18" r="18" style="stroke: black; stroke-width: 4px; fill: white; fill-opacity: 0.95;"/></g><rect class="djs-hit djs-hit-all" x="0" y="0" width="36" height="36" style="fill: none; stroke-opacity: 0; stroke: white; stroke-width: 15px;"/><rect x="-6" y="-6" width="48" height="48" class="djs-outline" style="fill: none;"/></g></g><g class="djs-group"><g class="djs-element djs-shape" data-element-id="Event_0yatf1o_label" style="display: block;" transform="matrix(1 0 0 1 889 355)"><g class="djs-visual"><text lineHeight="1.2" class="djs-label" style="font-family: Arial, sans-serif; font-size: 11px; font-weight: normal; fill: black;"><tspan x="0" y="9.899999999999999">Work abandoned</tspan></text></g><rect class="djs-hit djs-hit-all" x="0" y="0" width="84" height="14" style="fill: none; stroke-opacity: 0; stroke: white; stroke-width: 15px;"/><rect x="-6" y="-6" width="96" height="26" class="djs-outline" style="fill: none;"/></g></g><g class="djs-group"><g class="djs-element djs-shape" data-element-id="Gateway_00ot4gv" style="display: block;" transform="matrix(1 0 0 1 545 192)"><g class="djs-visual"><polygon points="25,0 50,25 25,50 0,25" style="stroke: black; stroke-width: 2px; fill: white; fill-opacity: 0.95;"/><path d="m 16,15 7.42857142857143,9.714285714285715 -7.42857142857143,9.714285714285715 3.428571428571429,0 5.714285714285715,-7.464228571428572 5.714285714285715,7.464228571428572 3.428571428571429,0 -7.42857142857143,-9.714285714285715 7.42857142857143,-9.714285714285715 -3.428571428571429,0 -5.714285714285715,7.464228571428572 -5.714285714285715,-7.464228571428572 -3.428571428571429,0 z" style="fill: black; stroke-width: 1px; stroke: black;"/></g><rect class="djs-hit djs-hit-all" x="0" y="0" width="50" height="50" style="fill: none; stroke-opacity: 0; stroke: white; stroke-width: 15px;"/><rect x="-6" y="-6" width="62" height="62" class="djs-outline" style="fill: none;"/></g></g><g class="djs-group"><g class="djs-element djs-shape" data-element-id="Event_1n4ls3c" style="display: block;" transform="matrix(1 0 0 1 682 239)"><g class="djs-visual"><circle cx="18" cy="18" r="18" style="stroke: black; stroke-width: 1px; fill: white; fill-opacity: 1;"/><circle cx="18" cy="18" r="15" style="stroke: black; stroke-width: 1px; fill: none;"/><path d="m 7.2,25.991999999999997 0.09350000000000001,-0.025300000000000003 7.3392,-9.610700000000001 7.667000000000001,8.9661 4.7003,-18.2204 -5.8707,11.6501 -7.299600000000001,-9.585400000000002 z" style="fill: none; stroke-width: 1px; stroke: black;"/></g><rect class="djs-hit djs-hit-all" x="0" y="0" width="36" height="36" style="fill: none; stroke-opacity: 0; stroke: white; stroke-width: 15px;"/><rect x="-6" y="-6" width="48" height="48" class="djs-outline" style="fill: none;"/></g></g><g class="djs-group"><g class="djs-element djs-shape" data-element-id="Event_1n4ls3c_label" style="display: block;" transform="matrix(1 0 0 1 713 276)"><g class="djs-visual"><text lineHeight="1.2" class="djs-label" style="font-family: Arial, sans-serif; font-size: 11px; font-weight: normal; fill: black;"><tspan x="0" y="9.899999999999999">Impossible </tspan><tspan x="7.9375" y="23.099999999999998">request</tspan></text></g><rect class="djs-hit djs-hit-all" x="0" y="0" width="53" height="27" style="fill: none; stroke-opacity: 0; stroke: white; stroke-width: 15px;"/><rect x="-6" y="-6" width="65" height="39" class="djs-outline" style="fill: none;"/></g></g><g class="djs-group"><g class="djs-element djs-shape" data-element-id="Flow_1gy0sn5_label" style="display: block;" transform="matrix(1 0 0 1 860 199)"><g class="djs-visual"><text lineHeight="1.2" class="djs-label" style="font-family: Arial, sans-serif; font-size: 11px; font-weight: normal; fill: black;"><tspan x="0" y="9.899999999999999">Yes</tspan></text></g><rect class="djs-hit djs-hit-all" x="0" y="0" width="19" height="14" style="fill: none; stroke-opacity: 0; stroke: white; stroke-width: 15px;"/><rect x="-6" y="-6" width="31" height="26" class="djs-outline" style="fill: none;"/></g></g><g class="djs-group"><g class="djs-element djs-shape" data-element-id="Flow_195whw8_label" style="display: block;" transform="matrix(1 0 0 1 693 122)"><g class="djs-visual"><text lineHeight="1.2" class="djs-label" style="font-family: Arial, sans-serif; font-size: 11px; font-weight: normal; fill: black;"><tspan x="0" y="9.899999999999999">No</tspan></text></g><rect class="djs-hit djs-hit-all" x="0" y="0" width="15" height="14" style="fill: none; stroke-opacity: 0; stroke: white; stroke-width: 15px;"/><rect x="-6" y="-6" width="27" height="26" class="djs-outline" style="fill: none;"/></g></g></g></g><g class="djs-group"><g class="djs-element djs-shape" data-element-id="Event_1rvug1g" style="display: block;" transform="matrix(1 0 0 1 182 202)"><g class="djs-visual"><circle cx="18" cy="18" r="18" style="stroke: black; stroke-width: 2px; fill: white; fill-opacity: 0.95;"/></g><rect class="djs-hit djs-hit-all" x="0" y="0" width="36" height="36" style="fill: none; stroke-opacity: 0; stroke: white; stroke-width: 15px;"/><rect x="-6" y="-6" width="48" height="48" class="djs-outline" style="fill: none;"/></g></g><g class="djs-group"><g class="djs-element djs-shape" data-element-id="Event_1rvug1g_label" style="display: block;" transform="matrix(1 0 0 1 161 245)"><g class="djs-visual"><text lineHeight="1.2" class="djs-label" style="font-family: Arial, sans-serif; font-size: 11px; font-weight: normal; fill: black;"><tspan x="0" y="9.899999999999999">Work requested</tspan></text></g><rect class="djs-hit djs-hit-all" x="0" y="0" width="78" height="14" style="fill: none; stroke-opacity: 0; stroke: white; stroke-width: 15px;"/><rect x="-6" y="-6" width="90" height="26" class="djs-outline" style="fill: none;"/></g></g><g class="djs-group"><g class="djs-element djs-shape" data-element-id="Event_1otyxbx" style="display: block;" transform="matrix(1 0 0 1 1052 202)"><g class="djs-visual"><circle cx="18" cy="18" r="18" style="stroke: black; stroke-width: 4px; fill: white; fill-opacity: 0.95;"/></g><rect class="djs-hit djs-hit-all" x="0" y="0" width="36" height="36" style="fill: none; stroke-opacity: 0; stroke: white; stroke-width: 15px;"/><rect x="-6" y="-6" width="48" height="48" class="djs-outline" style="fill: none;"/></g></g><g class="djs-group"><g class="djs-element djs-shape" data-element-id="Event_1otyxbx_label" style="display: block;" transform="matrix(1 0 0 1 1045 245)"><g class="djs-visual"><text lineHeight="1.2" class="djs-label" style="font-family: Arial, sans-serif; font-size: 11px; font-weight: normal; fill: black;"><tspan x="4.890625" y="9.899999999999999">Request </tspan><tspan x="0" y="23.099999999999998">completed</tspan></text></g><rect class="djs-hit djs-hit-all" x="0" y="0" width="51" height="27" style="fill: none; stroke-opacity: 0; stroke: white; stroke-width: 15px;"/><rect x="-6" y="-6" width="63" height="39" class="djs-outline" style="fill: none;"/></g></g><g class="djs-group"><g class="djs-element djs-shape" data-element-id="Robot_GetWorkItems" style="display: block;" transform="matrix(1 0 0 1 270 180)"><g class="djs-visual"><rect x="0" y="0" width="100" height="80" rx="10" ry="10" style="stroke: black; stroke-width: 2px; fill: white; fill-opacity: 0.95;"/><text lineHeight="1.2" class="djs-label" style="font-family: Arial, sans-serif; font-size: 12px; font-weight: normal; fill: black;"><tspan x="9.9921875" y="43.599999999999994">Get work items</tspan></text><g transform="matrix(1 0 0 -1 5 5) translate(2.5 -7) scale(0.19759672977412224 0.19759672977412224)"><path id="path22" style="fill:#000000;fill-opacity:1;fill-rule:nonzero;stroke:none" d="m 0,0 c 0,7.6 6.179,13.779 13.77,13.779 7.6,0 13.779,-6.179 13.779,-13.779 0,-2.769 -2.238,-5.007 -4.998,-5.007 -2.761,0 -4.999,2.238 -4.999,5.007 0,2.078 -1.695,3.765 -3.782,3.765 C 11.693,3.765 9.997,2.078 9.997,0 9.997,-2.769 7.76,-5.007 4.999,-5.007 2.238,-5.007 0,-2.769 0,0 m 57.05,-23.153 c 0,-2.771 -2.237,-5.007 -4.998,-5.007 l -46.378,0 c -2.761,0 -4.999,2.236 -4.999,5.007 0,2.769 2.238,5.007 4.999,5.007 l 46.378,0 c 2.761,0 4.998,-2.238 4.998,-5.007 M 35.379,-2.805 c -1.545,2.291 -0.941,5.398 1.35,6.943 l 11.594,7.83 c 2.273,1.58 5.398,0.941 6.943,-1.332 1.545,-2.29 0.941,-5.398 -1.35,-6.943 l -11.594,-7.83 c -0.852,-0.586 -1.829,-0.87 -2.788,-0.87 -1.607,0 -3.187,0.781 -4.155,2.202 m 31.748,-30.786 c 0,-0.945 -0.376,-1.852 -1.045,-2.522 l -8.617,-8.617 c -0.669,-0.668 -1.576,-1.045 -2.523,-1.045 l -52.833,0 c -0.947,0 -1.854,0.377 -2.523,1.045 l -8.617,8.617 c -0.669,0.67 -1.045,1.577 -1.045,2.522 l 0,52.799 c 0,0.947 0.376,1.854 1.045,2.522 l 8.617,8.619 c 0.669,0.668 1.576,1.044 2.523,1.044 l 52.833,0 c 0.947,0 1.854,-0.376 2.523,-1.044 l 8.617,-8.619 c 0.669,-0.668 1.045,-1.575 1.045,-2.522 l 0,-52.799 z m 7.334,61.086 -11.25,11.25 c -1.705,1.705 -4.018,2.663 -6.428,2.663 l -56.523,0 c -2.412,0 -4.725,-0.959 -6.43,-2.665 L -17.412,27.494 c -1.704,-1.705 -2.661,-4.016 -2.661,-6.427 l 0,-56.515 c 0,-2.411 0.958,-4.725 2.663,-6.428 l 11.25,-11.25 c 1.705,-1.705 4.017,-2.662 6.428,-2.662 l 56.515,0 c 2.41,0 4.723,0.957 6.428,2.662 l 11.25,11.25 c 1.705,1.703 2.663,4.017 2.663,6.428 l 0,56.514 c 0,2.412 -0.958,4.724 -2.663,6.429"/></g></g><rect class="djs-hit djs-hit-all" x="0" y="0" width="100" height="80" style="fill: none; stroke-opacity: 0; stroke: white; stroke-width: 15px;"/><rect x="-6" y="-6" width="112" height="92" class="djs-outline" style="fill: none;"/></g></g><g class="djs-group"><g class="djs-element djs-shape" data-element-id="TextAnnotation_0by5lbn" style="display: block;" transform="matrix(1 0 0 1 160 80)"><g class="djs-visual"><rect x="0" y="0" width="190" height="84" rx="0" ry="0" style="stroke: none; stroke-width: 2px; fill: none;"/><path d="m 0, 0 m 10,0 l -10,0 l 0,84 l 10,0" style="fill: none; stroke-width: 2px; stroke: black;"/><text lineHeight="1.2" class="djs-label" style="font-family: Arial, sans-serif; font-size: 12px; font-weight: normal; fill: black;"><tspan x="5" y="15.799999999999999">Name: Get work items</tspan><tspan x="5" y="30.199999999999996">ID: Robot_GetWorkItems</tspan><tspan x="5" y="44.599999999999994">Type: GetWorkItems</tspan><tspan x="5" y="58.99999999999999">Inputs: results = []</tspan><tspan x="5" y="73.39999999999999">Outputs: workItems = results</tspan></text></g><rect class="djs-hit djs-hit-all" x="0" y="0" width="190" height="84" style="fill: none; stroke-opacity: 0; stroke: white; stroke-width: 15px;"/><rect x="-6" y="-6" width="202" height="96" class="djs-outline" style="fill: none;"/></g></g><g class="djs-group"><g class="djs-element djs-shape" data-element-id="TextAnnotation_0kv2xyb" style="display: block;" transform="matrix(1 0 0 1 160 310)"><g class="djs-visual"><rect x="0" y="0" width="235" height="100" rx="0" ry="0" style="stroke: none; stroke-width: 2px; fill: none;"/><path d="m 0, 0 m 10,0 l -10,0 l 0,100 l 10,0" style="fill: none; stroke-width: 2px; stroke: black;"/><text lineHeight="1.2" class="djs-label" style="font-family: Arial, sans-serif; font-size: 12px; font-weight: normal; fill: black;"><tspan x="5" y="15.799999999999999">Input collection: workItems</tspan><tspan x="5" y="30.199999999999996">Input element: workItem</tspan><tspan x="5" y="44.599999999999994">Output collection: workItemsCompleted</tspan><tspan x="5" y="58.99999999999999">Output element: workCompleted</tspan><tspan x="5" y="73.39999999999999"/><tspan x="5" y="87.79999999999998">Outputs: workCompleted = false</tspan></text></g><rect class="djs-hit djs-hit-all" x="0" y="0" width="235" height="100" style="fill: none; stroke-opacity: 0; stroke: white; stroke-width: 15px;"/><rect x="-6" y="-6" width="247" height="112" class="djs-outline" style="fill: none;"/></g></g><g class="djs-group"><g class="djs-element djs-connection" data-element-id="Association_1ofg6dq" style="display: block;"><g class="djs-visual"><polyline points="285,180 271,164 " style="fill: none; stroke: black; stroke-width: 2px; stroke-dasharray: 0.5, 5; stroke-linecap: round; stroke-linejoin: round;"/></g><polyline points="285,180 271,164 " class="djs-hit djs-hit-stroke" style="fill: none; stroke-opacity: 0; stroke: white; stroke-width: 15px;"/><rect x="265" y="158" width="26" height="28" class="djs-outline" style="fill: none;"/></g></g><g class="djs-group"><g class="djs-element djs-connection" data-element-id="Association_0vtw3tr" style="display: block;"><g class="djs-visual"><polyline points="317,310 420,251 " style="fill: none; stroke: black; stroke-width: 2px; stroke-dasharray: 0.5, 5; stroke-linecap: round; stroke-linejoin: round;"/></g><polyline points="317,310 420,251 " class="djs-hit djs-hit-stroke" style="fill: none; stroke-opacity: 0; stroke: white; stroke-width: 15px;"/><rect x="311" y="245" width="115" height="71" class="djs-outline" style="fill: none;"/></g></g></svg>