<?xml version="1.0" encoding="utf-8"?>
<!-- created with bpmn-js / http://bpmn.io -->
<!DOCTYPE svg PUBLIC "-//W3C//DTD SVG 1.1//EN" "http://www.w3.org/Graphics/SVG/1.1/DTD/svg11.dtd">
<svg xmlns="http://www.w3.org/2000/svg" xmlns:xlink="http://www.w3.org/1999/xlink" width="1535" height="462" viewBox="146 74 1535 462" version="1.1"><defs><marker id="sequenceflow-end-white-black-9wegfhwmw4h1nsqd3ksgxmo8t" viewBox="0 0 20 20" refX="11" refY="10" markerWidth="10" markerHeight="10" orient="auto"><path d="M 1 5 L 11 10 L 1 15 Z" style="fill: black; stroke-width: 1px; stroke-linecap: round; stroke-dasharray: 10000, 1; stroke: black;"/></marker><marker id="conditional-default-flow-marker-white-black-9wegfhwmw4h1nsqd3ksgxmo8t" viewBox="0 0 20 20" refX="0" refY="10" markerWidth="10" markerHeight="10" orient="auto"><path d="M 6 4 L 10 16" style="fill: black; stroke-width: 1px; stroke-linecap: round; stroke-dasharray: 10000, 1; stroke: black;"/></marker></defs><g class="djs-group"><g class="djs-element djs-connection" data-element-id="Flow_19i898o" style="display: block;"><g class="djs-visual"><path d="m  1576,180L1632,180 " style="fill: none; stroke-width: 2px; stroke: black; stroke-linejoin: round; marker-end: url('#sequenceflow-end-white-black-9wegfhwmw4h1nsqd3ksgxmo8t');"/></g><polyline points="1576,180 1632,180 " class="djs-hit djs-hit-stroke" style="fill: none; stroke-opacity: 0; stroke: white; stroke-width: 15px;"/><rect x="1570" y="174" width="68" height="12" class="djs-outline" style="fill: none;"/></g></g><g class="djs-group"><g class="djs-element djs-connection" data-element-id="Flow_043t6oy" style="display: block;"><g class="djs-visual"><path d="m  1415,180L1476,180 " style="fill: none; stroke-width: 2px; stroke: black; stroke-linejoin: round; marker-end: url('#sequenceflow-end-white-black-9wegfhwmw4h1nsqd3ksgxmo8t');"/></g><polyline points="1415,180 1476,180 " class="djs-hit djs-hit-stroke" style="fill: none; stroke-opacity: 0; stroke: white; stroke-width: 15px;"/><rect x="1409" y="174" width="73" height="12" class="djs-outline" style="fill: none;"/></g></g><g class="djs-group"><g class="djs-element djs-connection" data-element-id="Flow_0fjq830" style="display: block;"><g class="djs-visual"><path d="m  354,180L415,180 " style="fill: none; stroke-width: 2px; stroke: black; stroke-linejoin: round; marker-end: url('#sequenceflow-end-white-black-9wegfhwmw4h1nsqd3ksgxmo8t');"/></g><polyline points="354,180 415,180 " class="djs-hit djs-hit-stroke" style="fill: none; stroke-opacity: 0; stroke: white; stroke-width: 15px;"/><rect x="348" y="174" width="73" height="12" class="djs-outline" style="fill: none;"/></g></g><g class="djs-group"><g class="djs-element djs-connection" data-element-id="Flow_03w6l4i" style="display: block;"><g class="djs-visual"><path d="m  198,180L254,180 " style="fill: none; stroke-width: 2px; stroke: black; stroke-linejoin: round; marker-end: url('#sequenceflow-end-white-black-9wegfhwmw4h1nsqd3ksgxmo8t');"/></g><polyline points="198,180 254,180 " class="djs-hit djs-hit-stroke" style="fill: none; stroke-opacity: 0; stroke: white; stroke-width: 15px;"/><rect x="192" y="174" width="68" height="12" class="djs-outline" style="fill: none;"/></g></g><g class="djs-group"><g class="djs-element djs-shape" data-element-id="Event_0p7uflj" style="display: block;" transform="matrix(1 0 0 1 162 162)"><g class="djs-visual"><circle cx="18" cy="18" r="18" style="stroke: black; stroke-width: 2px; fill: white; fill-opacity: 0.95;"/></g><rect class="djs-hit djs-hit-all" x="0" y="0" width="36" height="36" style="fill: none; stroke-opacity: 0; stroke: white; stroke-width: 15px;"/><rect x="-6" y="-6" width="48" height="48" class="djs-outline" style="fill: none;"/></g></g><g class="djs-group"><g class="djs-element djs-shape" data-element-id="Event_0p7uflj_label" style="display: block;" transform="matrix(1 0 0 1 152 206)"><g class="djs-visual"><text lineHeight="1.2" class="djs-label" style="font-family: Arial, sans-serif; font-size: 11px; font-weight: normal; fill: black;"><tspan x="0" y="9.899999999999999">Request all </tspan><tspan x="0.9873046875" y="23.099999999999998">certificates</tspan></text></g><rect class="djs-hit djs-hit-all" x="0" y="0" width="56" height="27" style="fill: none; stroke-opacity: 0; stroke: white; stroke-width: 15px;"/><rect x="-6" y="-6" width="68" height="39" class="djs-outline" style="fill: none;"/></g></g><g class="djs-group"><g class="djs-element djs-shape" data-element-id="robots_participants" style="display: block;" transform="matrix(1 0 0 1 254 140)"><g class="djs-visual"><rect x="0" y="0" width="100" height="80" rx="10" ry="10" style="stroke: black; stroke-width: 2px; fill: white; fill-opacity: 0.95;"/><text lineHeight="1.2" class="djs-label" style="font-family: Arial, sans-serif; font-size: 12px; font-weight: normal; fill: black;"><tspan x="27.3203125" y="36.4">Fetch all </tspan><tspan x="19.3125" y="50.8">participants</tspan></text><g transform="matrix(1 0 0 -1 5 5) translate(2.5 -7) scale(0.19759672977412224 0.19759672977412224)"><path id="path22" style="fill:#000000;fill-opacity:1;fill-rule:nonzero;stroke:none" d="m 0,0 c 0,7.6 6.179,13.779 13.77,13.779 7.6,0 13.779,-6.179 13.779,-13.779 0,-2.769 -2.238,-5.007 -4.998,-5.007 -2.761,0 -4.999,2.238 -4.999,5.007 0,2.078 -1.695,3.765 -3.782,3.765 C 11.693,3.765 9.997,2.078 9.997,0 9.997,-2.769 7.76,-5.007 4.999,-5.007 2.238,-5.007 0,-2.769 0,0 m 57.05,-23.153 c 0,-2.771 -2.237,-5.007 -4.998,-5.007 l -46.378,0 c -2.761,0 -4.999,2.236 -4.999,5.007 0,2.769 2.238,5.007 4.999,5.007 l 46.378,0 c 2.761,0 4.998,-2.238 4.998,-5.007 M 35.379,-2.805 c -1.545,2.291 -0.941,5.398 1.35,6.943 l 11.594,7.83 c 2.273,1.58 5.398,0.941 6.943,-1.332 1.545,-2.29 0.941,-5.398 -1.35,-6.943 l -11.594,-7.83 c -0.852,-0.586 -1.829,-0.87 -2.788,-0.87 -1.607,0 -3.187,0.781 -4.155,2.202 m 31.748,-30.786 c 0,-0.945 -0.376,-1.852 -1.045,-2.522 l -8.617,-8.617 c -0.669,-0.668 -1.576,-1.045 -2.523,-1.045 l -52.833,0 c -0.947,0 -1.854,0.377 -2.523,1.045 l -8.617,8.617 c -0.669,0.67 -1.045,1.577 -1.045,2.522 l 0,52.799 c 0,0.947 0.376,1.854 1.045,2.522 l 8.617,8.619 c 0.669,0.668 1.576,1.044 2.523,1.044 l 52.833,0 c 0.947,0 1.854,-0.376 2.523,-1.044 l 8.617,-8.619 c 0.669,-0.668 1.045,-1.575 1.045,-2.522 l 0,-52.799 z m 7.334,61.086 -11.25,11.25 c -1.705,1.705 -4.018,2.663 -6.428,2.663 l -56.523,0 c -2.412,0 -4.725,-0.959 -6.43,-2.665 L -17.412,27.494 c -1.704,-1.705 -2.661,-4.016 -2.661,-6.427 l 0,-56.515 c 0,-2.411 0.958,-4.725 2.663,-6.428 l 11.25,-11.25 c 1.705,-1.705 4.017,-2.662 6.428,-2.662 l 56.515,0 c 2.41,0 4.723,0.957 6.428,2.662 l 11.25,11.25 c 1.705,1.703 2.663,4.017 2.663,6.428 l 0,56.514 c 0,2.412 -0.958,4.724 -2.663,6.429"/></g></g><rect class="djs-hit djs-hit-all" x="0" y="0" width="100" height="80" style="fill: none; stroke-opacity: 0; stroke: white; stroke-width: 15px;"/><rect x="-6" y="-6" width="112" height="92" class="djs-outline" style="fill: none;"/></g></g><g class="djs-group"><g class="djs-element djs-shape" data-element-id="Activity_1yfso8x" style="display: block;" transform="matrix(1 0 0 1 415 80)"><g class="djs-visual"><rect x="0" y="0" width="1000" height="450" rx="10" ry="10" style="stroke: black; stroke-width: 2px; fill: white; fill-opacity: 0.95;"/><text lineHeight="1.2" class="djs-label" style="font-family: Arial, sans-serif; font-size: 12px; font-weight: normal; fill: black;"><tspan x="432.296875" y="15.799999999999999">Certificate of participation</tspan></text><path d="m497,431 m 0,3 l 10,0 m -10,3 l 10,0 m -10,3 l 10,0" data-marker="sequential" style="fill: white; stroke-width: 2px; stroke: black;"/></g><rect class="djs-hit djs-hit-all" x="0" y="0" width="1000" height="450" style="fill: none; stroke-opacity: 0; stroke: white; stroke-width: 15px;"/><rect x="-6" y="-6" width="1012" height="462" class="djs-outline" style="fill: none;"/></g><g class="djs-children"><g class="djs-group"><g class="djs-element djs-connection" data-element-id="Flow_1f55s4l" style="display: block;"><g class="djs-visual"><path d="m  635,180L690,180 " style="fill: none; stroke-width: 2px; stroke: black; stroke-linejoin: round; marker-end: url('#sequenceflow-end-white-black-9wegfhwmw4h1nsqd3ksgxmo8t');"/></g><polyline points="635,180 690,180 " class="djs-hit djs-hit-stroke" style="fill: none; stroke-opacity: 0; stroke: white; stroke-width: 15px;"/><rect x="629" y="174" width="67" height="12" class="djs-outline" style="fill: none;"/></g></g><g class="djs-group"><g class="djs-element djs-connection" data-element-id="Flow_1pq9i17" style="display: block;"><g class="djs-visual"><path d="m  845,378L845,450 L1237,450 " style="fill: none; stroke-width: 2px; stroke: black; stroke-linejoin: round; marker-end: url('#sequenceflow-end-white-black-9wegfhwmw4h1nsqd3ksgxmo8t');"/></g><polyline points="845,378 845,450 1237,450 " class="djs-hit djs-hit-stroke" style="fill: none; stroke-opacity: 0; stroke: white; stroke-width: 15px;"/><rect x="839" y="372" width="404" height="84" class="djs-outline" style="fill: none;"/></g></g><g class="djs-group"><g class="djs-element djs-connection" data-element-id="Flow_16pdrfw" style="display: block;"><g class="djs-visual"><path d="m  1175,320L1237,320 " style="fill: none; stroke-width: 2px; stroke: black; stroke-linejoin: round; marker-end: url('#sequenceflow-end-white-black-9wegfhwmw4h1nsqd3ksgxmo8t');"/></g><polyline points="1175,320 1237,320 " class="djs-hit djs-hit-stroke" style="fill: none; stroke-opacity: 0; stroke: white; stroke-width: 15px;"/><rect x="1169" y="314" width="74" height="12" class="djs-outline" style="fill: none;"/></g></g><g class="djs-group"><g class="djs-element djs-connection" data-element-id="Flow_0qoc3i3" style="display: block;"><g class="djs-visual"><path d="m  1273,450L1337,450 " style="fill: none; stroke-width: 2px; stroke: black; stroke-linejoin: round; marker-end: url('#sequenceflow-end-white-black-9wegfhwmw4h1nsqd3ksgxmo8t');"/></g><polyline points="1273,450 1337,450 " class="djs-hit djs-hit-stroke" style="fill: none; stroke-opacity: 0; stroke: white; stroke-width: 15px;"/><rect x="1267" y="444" width="76" height="12" class="djs-outline" style="fill: none;"/></g></g><g class="djs-group"><g class="djs-element djs-connection" data-element-id="Flow_1oe4l80" style="display: block;"><g class="djs-visual"><path d="m  1273,320L1337,320 " style="fill: none; stroke-width: 2px; stroke: black; stroke-linejoin: round; marker-end: url('#sequenceflow-end-white-black-9wegfhwmw4h1nsqd3ksgxmo8t');"/></g><polyline points="1273,320 1337,320 " class="djs-hit djs-hit-stroke" style="fill: none; stroke-opacity: 0; stroke: white; stroke-width: 15px;"/><rect x="1267" y="314" width="76" height="12" class="djs-outline" style="fill: none;"/></g></g><g class="djs-group"><g class="djs-element djs-connection" data-element-id="Flow_1d6becn" style="display: block;"><g class="djs-visual"><path d="m  1273,180L1337,180 " style="fill: none; stroke-width: 2px; stroke: black; stroke-linejoin: round; marker-end: url('#sequenceflow-end-white-black-9wegfhwmw4h1nsqd3ksgxmo8t');"/></g><polyline points="1273,180 1337,180 " class="djs-hit djs-hit-stroke" style="fill: none; stroke-opacity: 0; stroke: white; stroke-width: 15px;"/><rect x="1267" y="174" width="76" height="12" class="djs-outline" style="fill: none;"/></g></g><g class="djs-group"><g class="djs-element djs-connection" data-element-id="Flow_01v885t" style="display: block;"><g class="djs-visual"><path d="m  985,205L985,320 L1075,320 " style="fill: none; stroke-width: 2px; stroke: black; stroke-linejoin: round; marker-end: url('#sequenceflow-end-white-black-9wegfhwmw4h1nsqd3ksgxmo8t'); marker-start: url('#conditional-default-flow-marker-white-black-9wegfhwmw4h1nsqd3ksgxmo8t');"/></g><polyline points="985,205 985,320 1075,320 " class="djs-hit djs-hit-stroke" style="fill: none; stroke-opacity: 0; stroke: white; stroke-width: 15px;"/><rect x="979" y="199" width="102" height="127" class="djs-outline" style="fill: none;"/></g></g><g class="djs-group"><g class="djs-element djs-connection" data-element-id="Flow_0asohg2" style="display: block;"><g class="djs-visual"><path d="m  1010,180L1075,180 " style="fill: none; stroke-width: 2px; stroke: black; stroke-linejoin: round; marker-end: url('#sequenceflow-end-white-black-9wegfhwmw4h1nsqd3ksgxmo8t');"/></g><polyline points="1010,180 1075,180 " class="djs-hit djs-hit-stroke" style="fill: none; stroke-opacity: 0; stroke: white; stroke-width: 15px;"/><rect x="1004" y="174" width="77" height="12" class="djs-outline" style="fill: none;"/></g></g><g class="djs-group"><g class="djs-element djs-connection" data-element-id="Flow_1grc7q5" style="display: block;"><g class="djs-visual"><path d="m  1175,180L1237,180 " style="fill: none; stroke-width: 2px; stroke: black; stroke-linejoin: round; marker-end: url('#sequenceflow-end-white-black-9wegfhwmw4h1nsqd3ksgxmo8t');"/></g><polyline points="1175,180 1237,180 " class="djs-hit djs-hit-stroke" style="fill: none; stroke-opacity: 0; stroke: white; stroke-width: 15px;"/><rect x="1169" y="174" width="74" height="12" class="djs-outline" style="fill: none;"/></g></g><g class="djs-group"><g class="djs-element djs-connection" data-element-id="Flow_007fhvb" style="display: block;"><g class="djs-visual"><path d="m  895,180L960,180 " style="fill: none; stroke-width: 2px; stroke: black; stroke-linejoin: round; marker-end: url('#sequenceflow-end-white-black-9wegfhwmw4h1nsqd3ksgxmo8t');"/></g><polyline points="895,180 960,180 " class="djs-hit djs-hit-stroke" style="fill: none; stroke-opacity: 0; stroke: white; stroke-width: 15px;"/><rect x="889" y="174" width="77" height="12" class="djs-outline" style="fill: none;"/></g></g><g class="djs-group"><g class="djs-element djs-connection" data-element-id="Flow_0a141q4" style="display: block;"><g class="djs-visual"><path d="m  845,238L845,280 " style="fill: none; stroke-width: 2px; stroke: black; stroke-linejoin: round; marker-end: url('#sequenceflow-end-white-black-9wegfhwmw4h1nsqd3ksgxmo8t');"/></g><polyline points="845,238 845,280 " class="djs-hit djs-hit-stroke" style="fill: none; stroke-opacity: 0; stroke: white; stroke-width: 15px;"/><rect x="839" y="232" width="12" height="54" class="djs-outline" style="fill: none;"/></g></g><g class="djs-group"><g class="djs-element djs-connection" data-element-id="Flow_0nm0d7t" style="display: block;"><g class="djs-visual"><path d="m  740,180L795,180 " style="fill: none; stroke-width: 2px; stroke: black; stroke-linejoin: round; marker-end: url('#sequenceflow-end-white-black-9wegfhwmw4h1nsqd3ksgxmo8t');"/></g><polyline points="740,180 795,180 " class="djs-hit djs-hit-stroke" style="fill: none; stroke-opacity: 0; stroke: white; stroke-width: 15px;"/><rect x="734" y="174" width="67" height="12" class="djs-outline" style="fill: none;"/></g></g><g class="djs-group"><g class="djs-element djs-connection" data-element-id="Flow_1h6r8uc" style="display: block;"><g class="djs-visual"><path d="m  795,320L715,320 L715,205 " style="fill: none; stroke-width: 2px; stroke: black; stroke-linejoin: round; marker-end: url('#sequenceflow-end-white-black-9wegfhwmw4h1nsqd3ksgxmo8t');"/></g><polyline points="795,320 715,320 715,205 " class="djs-hit djs-hit-stroke" style="fill: none; stroke-opacity: 0; stroke: white; stroke-width: 15px;"/><rect x="709" y="199" width="92" height="127" class="djs-outline" style="fill: none;"/></g></g><g class="djs-group"><g class="djs-element djs-connection" data-element-id="Flow_18loume" style="display: block;"><g class="djs-visual"><path d="m  483,180L535,180 " style="fill: none; stroke-width: 2px; stroke: black; stroke-linejoin: round; marker-end: url('#sequenceflow-end-white-black-9wegfhwmw4h1nsqd3ksgxmo8t');"/></g><polyline points="483,180 535,180 " class="djs-hit djs-hit-stroke" style="fill: none; stroke-opacity: 0; stroke: white; stroke-width: 15px;"/><rect x="477" y="174" width="64" height="12" class="djs-outline" style="fill: none;"/></g></g><g class="djs-group"><g class="djs-element djs-shape" data-element-id="Event_0i6dt8p" style="display: block;" transform="matrix(1 0 0 1 447 162)"><g class="djs-visual"><circle cx="18" cy="18" r="18" style="stroke: black; stroke-width: 2px; fill: white; fill-opacity: 0.95;"/></g><rect class="djs-hit djs-hit-all" x="0" y="0" width="36" height="36" style="fill: none; stroke-opacity: 0; stroke: white; stroke-width: 15px;"/><rect x="-6" y="-6" width="48" height="48" class="djs-outline" style="fill: none;"/></g></g><g class="djs-group"><g class="djs-element djs-shape" data-element-id="Event_0i6dt8p_label" style="display: block;" transform="matrix(1 0 0 1 441 206)"><g class="djs-visual"><text lineHeight="1.2" class="djs-label" style="font-family: Arial, sans-serif; font-size: 11px; font-weight: normal; fill: black;"><tspan x="0" y="9.899999999999999">Certificate </tspan><tspan x="0.296875" y="23.099999999999998">requested</tspan></text></g><rect class="djs-hit djs-hit-all" x="0" y="0" width="50" height="27" style="fill: none; stroke-opacity: 0; stroke: white; stroke-width: 15px;"/><rect x="-6" y="-6" width="62" height="39" class="djs-outline" style="fill: none;"/></g></g><g class="djs-group"><g class="djs-element djs-shape" data-element-id="Gateway_11dp4qc" style="display: block;" transform="matrix(1 0 0 1 690 155)"><g class="djs-visual"><polygon points="25,0 50,25 25,50 0,25" style="stroke: black; stroke-width: 2px; fill: white; fill-opacity: 0.95;"/><path d="m 16,15 7.42857142857143,9.714285714285715 -7.42857142857143,9.714285714285715 3.428571428571429,0 5.714285714285715,-7.464228571428572 5.714285714285715,7.464228571428572 3.428571428571429,0 -7.42857142857143,-9.714285714285715 7.42857142857143,-9.714285714285715 -3.428571428571429,0 -5.714285714285715,7.464228571428572 -5.714285714285715,-7.464228571428572 -3.428571428571429,0 z" style="fill: black; stroke-width: 1px; stroke: black;"/></g><rect class="djs-hit djs-hit-all" x="0" y="0" width="50" height="50" style="fill: none; stroke-opacity: 0; stroke: white; stroke-width: 15px;"/><rect x="-6" y="-6" width="62" height="62" class="djs-outline" style="fill: none;"/></g></g><g class="djs-group"><g class="djs-element djs-shape" data-element-id="Activity_1agk1lu" style="display: block;" transform="matrix(1 0 0 1 795 280)"><g class="djs-visual"><rect x="0" y="0" width="100" height="80" rx="10" ry="10" style="stroke: black; stroke-width: 2px; fill: white; fill-opacity: 0.95;"/><text lineHeight="1.2" class="djs-label" style="font-family: Arial, sans-serif; font-size: 12px; font-weight: normal; fill: black;"><tspan x="10.9765625" y="36.4">Review and fix </tspan><tspan x="10.8134765625" y="50.8">participant info</tspan></text><path d="m 15,12 c 0.909,-0.845 1.594,-2.049 1.594,-3.385 0,-2.554 -1.805,-4.62199999 -4.357,-4.62199999 -2.55199998,0 -4.28799998,2.06799999 -4.28799998,4.62199999 0,1.348 0.974,2.562 1.89599998,3.405 -0.52899998,0.187 -5.669,2.097 -5.794,4.7560005 v 6.718 h 17 v -6.718 c 0,-2.2980005 -5.5279996,-4.5950005 -6.0509996,-4.7760005 zm -8,6 l 0,5.5 m 11,0 l 0,-5" style="fill: white; stroke-width: 0.5px; stroke: black;"/><path d="m 15,12 m 2.162,1.009 c 0,2.4470005 -2.158,4.4310005 -4.821,4.4310005 -2.66499998,0 -4.822,-1.981 -4.822,-4.4310005 " style="fill: white; stroke-width: 0.5px; stroke: black;"/><path d="m 15,12 m -6.9,-3.80 c 0,0 2.25099998,-2.358 4.27399998,-1.177 2.024,1.181 4.221,1.537 4.124,0.965 -0.098,-0.57 -0.117,-3.79099999 -4.191,-4.13599999 -3.57499998,0.001 -4.20799998,3.36699999 -4.20699998,4.34799999 z" style="fill: black; stroke-width: 0.5px; stroke: black;"/></g><rect class="djs-hit djs-hit-all" x="0" y="0" width="100" height="80" style="fill: none; stroke-opacity: 0; stroke: white; stroke-width: 15px;"/><rect x="-6" y="-6" width="112" height="92" class="djs-outline" style="fill: none;"/></g></g><g class="djs-group"><g class="djs-element djs-shape" data-element-id="robot_certificate" style="display: block;" transform="matrix(1 0 0 1 795 140)"><g class="djs-visual"><rect x="0" y="0" width="100" height="80" rx="10" ry="10" style="stroke: black; stroke-width: 2px; fill: white; fill-opacity: 0.95;"/><text lineHeight="1.2" class="djs-label" style="font-family: Arial, sans-serif; font-size: 12px; font-weight: normal; fill: black;"><tspan x="31.828125" y="36.4">Create </tspan><tspan x="24.1611328125" y="50.8">certificate</tspan></text><g transform="matrix(1 0 0 -1 5 5) translate(2.5 -7) scale(0.19759672977412224 0.19759672977412224)"><path id="path22" style="fill:#000000;fill-opacity:1;fill-rule:nonzero;stroke:none" d="m 0,0 c 0,7.6 6.179,13.779 13.77,13.779 7.6,0 13.779,-6.179 13.779,-13.779 0,-2.769 -2.238,-5.007 -4.998,-5.007 -2.761,0 -4.999,2.238 -4.999,5.007 0,2.078 -1.695,3.765 -3.782,3.765 C 11.693,3.765 9.997,2.078 9.997,0 9.997,-2.769 7.76,-5.007 4.999,-5.007 2.238,-5.007 0,-2.769 0,0 m 57.05,-23.153 c 0,-2.771 -2.237,-5.007 -4.998,-5.007 l -46.378,0 c -2.761,0 -4.999,2.236 -4.999,5.007 0,2.769 2.238,5.007 4.999,5.007 l 46.378,0 c 2.761,0 4.998,-2.238 4.998,-5.007 M 35.379,-2.805 c -1.545,2.291 -0.941,5.398 1.35,6.943 l 11.594,7.83 c 2.273,1.58 5.398,0.941 6.943,-1.332 1.545,-2.29 0.941,-5.398 -1.35,-6.943 l -11.594,-7.83 c -0.852,-0.586 -1.829,-0.87 -2.788,-0.87 -1.607,0 -3.187,0.781 -4.155,2.202 m 31.748,-30.786 c 0,-0.945 -0.376,-1.852 -1.045,-2.522 l -8.617,-8.617 c -0.669,-0.668 -1.576,-1.045 -2.523,-1.045 l -52.833,0 c -0.947,0 -1.854,0.377 -2.523,1.045 l -8.617,8.617 c -0.669,0.67 -1.045,1.577 -1.045,2.522 l 0,52.799 c 0,0.947 0.376,1.854 1.045,2.522 l 8.617,8.619 c 0.669,0.668 1.576,1.044 2.523,1.044 l 52.833,0 c 0.947,0 1.854,-0.376 2.523,-1.044 l 8.617,-8.619 c 0.669,-0.668 1.045,-1.575 1.045,-2.522 l 0,-52.799 z m 7.334,61.086 -11.25,11.25 c -1.705,1.705 -4.018,2.663 -6.428,2.663 l -56.523,0 c -2.412,0 -4.725,-0.959 -6.43,-2.665 L -17.412,27.494 c -1.704,-1.705 -2.661,-4.016 -2.661,-6.427 l 0,-56.515 c 0,-2.411 0.958,-4.725 2.663,-6.428 l 11.25,-11.25 c 1.705,-1.705 4.017,-2.662 6.428,-2.662 l 56.515,0 c 2.41,0 4.723,0.957 6.428,2.662 l 11.25,11.25 c 1.705,1.703 2.663,4.017 2.663,6.428 l 0,56.514 c 0,2.412 -0.958,4.724 -2.663,6.429"/></g></g><rect class="djs-hit djs-hit-all" x="0" y="0" width="100" height="80" style="fill: none; stroke-opacity: 0; stroke: white; stroke-width: 15px;"/><rect x="-6" y="-6" width="112" height="92" class="djs-outline" style="fill: none;"/></g></g><g class="djs-group"><g class="djs-element djs-shape" data-element-id="Event_01vfo32" style="display: block;" transform="matrix(1 0 0 1 1337 162)"><g class="djs-visual"><circle cx="18" cy="18" r="18" style="stroke: black; stroke-width: 4px; fill: white; fill-opacity: 0.95;"/></g><rect class="djs-hit djs-hit-all" x="0" y="0" width="36" height="36" style="fill: none; stroke-opacity: 0; stroke: white; stroke-width: 15px;"/><rect x="-6" y="-6" width="48" height="48" class="djs-outline" style="fill: none;"/></g></g><g class="djs-group"><g class="djs-element djs-shape" data-element-id="Event_01vfo32_label" style="display: block;" transform="matrix(1 0 0 1 1324 203)"><g class="djs-visual"><text lineHeight="1.2" class="djs-label" style="font-family: Arial, sans-serif; font-size: 11px; font-weight: normal; fill: black;"><tspan x="0" y="9.899999999999999">Delivered by </tspan><tspan x="17.671142578125" y="23.099999999999998">email</tspan></text></g><rect class="djs-hit djs-hit-all" x="0" y="0" width="62" height="27" style="fill: none; stroke-opacity: 0; stroke: white; stroke-width: 15px;"/><rect x="-6" y="-6" width="74" height="39" class="djs-outline" style="fill: none;"/></g></g><g class="djs-group"><g class="djs-element djs-shape" data-element-id="robot_email" style="display: block;" transform="matrix(1 0 0 1 1075 140)"><g class="djs-visual"><rect x="0" y="0" width="100" height="80" rx="10" ry="10" style="stroke: black; stroke-width: 2px; fill: white; fill-opacity: 0.95;"/><text lineHeight="1.2" class="djs-label" style="font-family: Arial, sans-serif; font-size: 12px; font-weight: normal; fill: black;"><tspan x="7.4912109375" y="43.599999999999994">Email certificate</tspan></text><g transform="matrix(1 0 0 -1 5 5) translate(2.5 -7) scale(0.19759672977412224 0.19759672977412224)"><path id="path22" style="fill:#000000;fill-opacity:1;fill-rule:nonzero;stroke:none" d="m 0,0 c 0,7.6 6.179,13.779 13.77,13.779 7.6,0 13.779,-6.179 13.779,-13.779 0,-2.769 -2.238,-5.007 -4.998,-5.007 -2.761,0 -4.999,2.238 -4.999,5.007 0,2.078 -1.695,3.765 -3.782,3.765 C 11.693,3.765 9.997,2.078 9.997,0 9.997,-2.769 7.76,-5.007 4.999,-5.007 2.238,-5.007 0,-2.769 0,0 m 57.05,-23.153 c 0,-2.771 -2.237,-5.007 -4.998,-5.007 l -46.378,0 c -2.761,0 -4.999,2.236 -4.999,5.007 0,2.769 2.238,5.007 4.999,5.007 l 46.378,0 c 2.761,0 4.998,-2.238 4.998,-5.007 M 35.379,-2.805 c -1.545,2.291 -0.941,5.398 1.35,6.943 l 11.594,7.83 c 2.273,1.58 5.398,0.941 6.943,-1.332 1.545,-2.29 0.941,-5.398 -1.35,-6.943 l -11.594,-7.83 c -0.852,-0.586 -1.829,-0.87 -2.788,-0.87 -1.607,0 -3.187,0.781 -4.155,2.202 m 31.748,-30.786 c 0,-0.945 -0.376,-1.852 -1.045,-2.522 l -8.617,-8.617 c -0.669,-0.668 -1.576,-1.045 -2.523,-1.045 l -52.833,0 c -0.947,0 -1.854,0.377 -2.523,1.045 l -8.617,8.617 c -0.669,0.67 -1.045,1.577 -1.045,2.522 l 0,52.799 c 0,0.947 0.376,1.854 1.045,2.522 l 8.617,8.619 c 0.669,0.668 1.576,1.044 2.523,1.044 l 52.833,0 c 0.947,0 1.854,-0.376 2.523,-1.044 l 8.617,-8.619 c 0.669,-0.668 1.045,-1.575 1.045,-2.522 l 0,-52.799 z m 7.334,61.086 -11.25,11.25 c -1.705,1.705 -4.018,2.663 -6.428,2.663 l -56.523,0 c -2.412,0 -4.725,-0.959 -6.43,-2.665 L -17.412,27.494 c -1.704,-1.705 -2.661,-4.016 -2.661,-6.427 l 0,-56.515 c 0,-2.411 0.958,-4.725 2.663,-6.428 l 11.25,-11.25 c 1.705,-1.705 4.017,-2.662 6.428,-2.662 l 56.515,0 c 2.41,0 4.723,0.957 6.428,2.662 l 11.25,11.25 c 1.705,1.703 2.663,4.017 2.663,6.428 l 0,56.514 c 0,2.412 -0.958,4.724 -2.663,6.429"/></g></g><rect class="djs-hit djs-hit-all" x="0" y="0" width="100" height="80" style="fill: none; stroke-opacity: 0; stroke: white; stroke-width: 15px;"/><rect x="-6" y="-6" width="112" height="92" class="djs-outline" style="fill: none;"/></g></g><g class="djs-group"><g class="djs-element djs-shape" data-element-id="Gateway_07cj5yp" style="display: block;" transform="matrix(1 0 0 1 960 155)"><g class="djs-visual"><polygon points="25,0 50,25 25,50 0,25" style="stroke: black; stroke-width: 2px; fill: white; fill-opacity: 0.95;"/><path d="m 16,15 7.42857142857143,9.714285714285715 -7.42857142857143,9.714285714285715 3.428571428571429,0 5.714285714285715,-7.464228571428572 5.714285714285715,7.464228571428572 3.428571428571429,0 -7.42857142857143,-9.714285714285715 7.42857142857143,-9.714285714285715 -3.428571428571429,0 -5.714285714285715,7.464228571428572 -5.714285714285715,-7.464228571428572 -3.428571428571429,0 z" style="fill: black; stroke-width: 1px; stroke: black;"/></g><rect class="djs-hit djs-hit-all" x="0" y="0" width="50" height="50" style="fill: none; stroke-opacity: 0; stroke: white; stroke-width: 15px;"/><rect x="-6" y="-6" width="62" height="62" class="djs-outline" style="fill: none;"/></g></g><g class="djs-group"><g class="djs-element djs-shape" data-element-id="Gateway_07cj5yp_label" style="display: block;" transform="matrix(1 0 0 1 947 133)"><g class="djs-visual"><text lineHeight="1.2" class="djs-label" style="font-family: Arial, sans-serif; font-size: 11px; font-weight: normal; fill: black;"><tspan x="0" y="9.899999999999999">Email consent?</tspan></text></g><rect class="djs-hit djs-hit-all" x="0" y="0" width="76" height="14" style="fill: none; stroke-opacity: 0; stroke: white; stroke-width: 15px;"/><rect x="-6" y="-6" width="88" height="26" class="djs-outline" style="fill: none;"/></g></g><g class="djs-group"><g class="djs-element djs-shape" data-element-id="Event_16i1e37" style="display: block;" transform="matrix(1 0 0 1 1337 302)"><g class="djs-visual"><circle cx="18" cy="18" r="18" style="stroke: black; stroke-width: 4px; fill: white; fill-opacity: 0.95;"/></g><rect class="djs-hit djs-hit-all" x="0" y="0" width="36" height="36" style="fill: none; stroke-opacity: 0; stroke: white; stroke-width: 15px;"/><rect x="-6" y="-6" width="48" height="48" class="djs-outline" style="fill: none;"/></g></g><g class="djs-group"><g class="djs-element djs-shape" data-element-id="Event_16i1e37_label" style="display: block;" transform="matrix(1 0 0 1 1316 346)"><g class="djs-visual"><text lineHeight="1.2" class="djs-label" style="font-family: Arial, sans-serif; font-size: 11px; font-weight: normal; fill: black;"><tspan x="0" y="9.899999999999999">Manual delivery </tspan><tspan x="18.589111328125" y="23.099999999999998">required</tspan></text></g><rect class="djs-hit djs-hit-all" x="0" y="0" width="78" height="27" style="fill: none; stroke-opacity: 0; stroke: white; stroke-width: 15px;"/><rect x="-6" y="-6" width="90" height="39" class="djs-outline" style="fill: none;"/></g></g><g class="djs-group"><g class="djs-element djs-shape" data-element-id="Event_1602zb0" style="display: block;" transform="matrix(1 0 0 1 1337 432)"><g class="djs-visual"><circle cx="18" cy="18" r="18" style="stroke: black; stroke-width: 4px; fill: white; fill-opacity: 0.95;"/></g><rect class="djs-hit djs-hit-all" x="0" y="0" width="36" height="36" style="fill: none; stroke-opacity: 0; stroke: white; stroke-width: 15px;"/><rect x="-6" y="-6" width="48" height="48" class="djs-outline" style="fill: none;"/></g></g><g class="djs-group"><g class="djs-element djs-shape" data-element-id="Event_1602zb0_label" style="display: block;" transform="matrix(1 0 0 1 1316 473)"><g class="djs-visual"><text lineHeight="1.2" class="djs-label" style="font-family: Arial, sans-serif; font-size: 11px; font-weight: normal; fill: black;"><tspan x="0" y="9.899999999999999">No certificate to </tspan><tspan x="8.859375" y="23.099999999999998">deliver at all</tspan></text></g><rect class="djs-hit djs-hit-all" x="0" y="0" width="77" height="27" style="fill: none; stroke-opacity: 0; stroke: white; stroke-width: 15px;"/><rect x="-6" y="-6" width="89" height="39" class="djs-outline" style="fill: none;"/></g></g><g class="djs-group"><g class="djs-element djs-shape" data-element-id="Activity_113wcdm" style="display: block;" transform="matrix(1 0 0 1 1075 280)"><g class="djs-visual"><rect x="0" y="0" width="100" height="80" rx="10" ry="10" style="stroke: black; stroke-width: 2px; fill: white; fill-opacity: 0.95;"/><text lineHeight="1.2" class="djs-label" style="font-family: Arial, sans-serif; font-size: 12px; font-weight: normal; fill: black;"><tspan x="12.64453125" y="36.4">Print and post </tspan><tspan x="24.1611328125" y="50.8">certificate</tspan></text><path d="m 17,15 c 0.234,-0.01 5.604,0.008 8.029,0.004 0.808,0 1.271,-0.172 1.417,-0.752 0.227,-0.898 -0.334,-1.314 -1.338,-1.316 -2.467,-0.01 -7.886,-0.004 -8.108,-0.004 -0.014,-0.079 0.016,-0.533 0,-0.61 0.195,-0.042 8.507,0.006 9.616,0.002 0.877,-0.007 1.35,-0.438 1.353,-1.208 0.003,-0.768 -0.479,-1.09 -1.35,-1.091 -2.968,-0.002 -9.619,-0.013 -9.619,-0.013 v -0.591 c 0,0 5.052,-0.016 7.225,-0.016 0.888,-0.002 1.354,-0.416 1.351,-1.193 -0.006,-0.761 -0.492,-1.196 -1.361,-1.196 -3.473,-0.005 -10.86,-0.003 -11.0829995,-0.003 -0.022,-0.047 -0.045,-0.094 -0.069,-0.139 0.3939995,-0.319 2.0409995,-1.626 2.4149995,-2.017 0.469,-0.4870005 0.519,-1.1650005 0.162,-1.6040005 -0.414,-0.511 -0.973,-0.5 -1.48,-0.236 -1.4609995,0.764 -6.5999995,3.6430005 -7.7329995,4.2710005 -0.9,0.499 -1.516,1.253 -1.882,2.19 -0.37000002,0.95 -0.17,2.01 -0.166,2.979 0.004,0.718 -0.27300002,1.345 -0.055,2.063 0.629,2.087 2.425,3.312 4.859,3.318 4.6179995,0.014 9.2379995,-0.139 13.8569995,-0.158 0.755,-0.004 1.171,-0.301 1.182,-1.033 0.012,-0.754 -0.423,-0.969 -1.183,-0.973 -1.778,-0.01 -5.824,-0.004 -6.04,-0.004 10e-4,-0.084 0.003,-0.586 10e-4,-0.67 z" style="fill: white; stroke-width: 0.5px; stroke: black;"/></g><rect class="djs-hit djs-hit-all" x="0" y="0" width="100" height="80" style="fill: none; stroke-opacity: 0; stroke: white; stroke-width: 15px;"/><rect x="-6" y="-6" width="112" height="92" class="djs-outline" style="fill: none;"/></g></g><g class="djs-group"><g class="djs-element djs-shape" data-element-id="Event_0lbt54f" style="display: block;" transform="matrix(1 0 0 1 1237 162)"><g class="djs-visual"><circle cx="18" cy="18" r="18" style="stroke: black; stroke-width: 1px; fill: white; fill-opacity: 0.95;"/><circle cx="18" cy="18" r="15" style="stroke: black; stroke-width: 1px; fill: none;"/></g><rect class="djs-hit djs-hit-all" x="0" y="0" width="36" height="36" style="fill: none; stroke-opacity: 0; stroke: white; stroke-width: 15px;"/><rect x="-6" y="-6" width="48" height="48" class="djs-outline" style="fill: none;"/></g></g><g class="djs-group"><g class="djs-element djs-shape" data-element-id="Event_0lbt54f_label" style="display: block;" transform="matrix(1 0 0 1 1221 205)"><g class="djs-visual"><text lineHeight="1.2" class="djs-label" style="font-family: Arial, sans-serif; font-size: 11px; font-weight: normal; fill: black;"><tspan x="0" y="9.899999999999999">Being digitally </tspan><tspan x="11.866943359375" y="23.099999999999998">delivered</tspan></text></g><rect class="djs-hit djs-hit-all" x="0" y="0" width="69" height="27" style="fill: none; stroke-opacity: 0; stroke: white; stroke-width: 15px;"/><rect x="-6" y="-6" width="81" height="39" class="djs-outline" style="fill: none;"/></g></g><g class="djs-group"><g class="djs-element djs-shape" data-element-id="Event_0q2mjsq" style="display: block;" transform="matrix(1 0 0 1 1237 302)"><g class="djs-visual"><circle cx="18" cy="18" r="18" style="stroke: black; stroke-width: 1px; fill: white; fill-opacity: 0.95;"/><circle cx="18" cy="18" r="15" style="stroke: black; stroke-width: 1px; fill: none;"/></g><rect class="djs-hit djs-hit-all" x="0" y="0" width="36" height="36" style="fill: none; stroke-opacity: 0; stroke: white; stroke-width: 15px;"/><rect x="-6" y="-6" width="48" height="48" class="djs-outline" style="fill: none;"/></g></g><g class="djs-group"><g class="djs-element djs-shape" data-element-id="Event_0q2mjsq_label" style="display: block;" transform="matrix(1 0 0 1 1218 345)"><g class="djs-visual"><text lineHeight="1.2" class="djs-label" style="font-family: Arial, sans-serif; font-size: 11px; font-weight: normal; fill: black;"><tspan x="0" y="9.899999999999999">Being manually </tspan><tspan x="15.535400390625" y="23.099999999999998">delivered</tspan></text></g><rect class="djs-hit djs-hit-all" x="0" y="0" width="76" height="27" style="fill: none; stroke-opacity: 0; stroke: white; stroke-width: 15px;"/><rect x="-6" y="-6" width="88" height="39" class="djs-outline" style="fill: none;"/></g></g><g class="djs-group"><g class="djs-element djs-shape" data-element-id="Event_1ez4jti" style="display: block;" transform="matrix(1 0 0 1 1237 432)"><g class="djs-visual"><circle cx="18" cy="18" r="18" style="stroke: black; stroke-width: 1px; fill: white; fill-opacity: 0.95;"/><circle cx="18" cy="18" r="15" style="stroke: black; stroke-width: 1px; fill: none;"/></g><rect class="djs-hit djs-hit-all" x="0" y="0" width="36" height="36" style="fill: none; stroke-opacity: 0; stroke: white; stroke-width: 15px;"/><rect x="-6" y="-6" width="48" height="48" class="djs-outline" style="fill: none;"/></g></g><g class="djs-group"><g class="djs-element djs-shape" data-element-id="Event_1ez4jti_label" style="display: block;" transform="matrix(1 0 0 1 1232 475)"><g class="djs-visual"><text lineHeight="1.2" class="djs-label" style="font-family: Arial, sans-serif; font-size: 11px; font-weight: normal; fill: black;"><tspan x="0" y="9.899999999999999">Not being </tspan><tspan x="1.2265625" y="23.099999999999998">delivered</tspan></text></g><rect class="djs-hit djs-hit-all" x="0" y="0" width="48" height="27" style="fill: none; stroke-opacity: 0; stroke: white; stroke-width: 15px;"/><rect x="-6" y="-6" width="60" height="39" class="djs-outline" style="fill: none;"/></g></g><g class="djs-group"><g class="djs-element djs-shape" data-element-id="Activity_108xvm2" style="display: block;" transform="matrix(1 0 0 1 535 140)"><g class="djs-visual"><rect x="0" y="0" width="100" height="80" rx="10" ry="10" style="stroke: black; stroke-width: 2px; fill: white; fill-opacity: 0.95;"/><text lineHeight="1.2" class="djs-label" style="font-family: Arial, sans-serif; font-size: 12px; font-weight: normal; fill: black;"><tspan x="38.1650390625" y="36.4">Map </tspan><tspan x="15.6474609375" y="50.8">achievement</tspan></text><path d="m44,60 m 3,2 l 0,10 m 3,-10 l 0,10 m 3,-10 l 0,10" data-marker="parallel" style="fill: white; stroke-width: 2px; stroke: black;"/><path d="m 8,8 0,4 20,0 0,-4 z" style="fill: rgb(170, 170, 170); stroke-width: 1px; stroke: black;"/><path d="m 8,8 0,12 20,0 0,-12 zm 0,8 l 20,0 m -13,-4 l 0,8" style="fill: none; stroke-width: 1px; stroke: black;"/></g><rect class="djs-hit djs-hit-all" x="0" y="0" width="100" height="80" style="fill: none; stroke-opacity: 0; stroke: white; stroke-width: 15px;"/><rect x="-6" y="-6" width="112" height="92" class="djs-outline" style="fill: none;"/></g></g><g class="djs-group"><g class="djs-element djs-shape" data-element-id="Event_1erejq2" style="display: block;" transform="matrix(1 0 0 1 827 342)"><g class="djs-visual"><circle cx="18" cy="18" r="18" style="stroke: black; stroke-width: 1px; fill: white; fill-opacity: 1;"/><circle cx="18" cy="18" r="15" style="stroke: black; stroke-width: 1px; fill: none;"/><circle cx="18" cy="18" r="11" style="stroke: black; stroke-width: 2px; fill: white;"/><path d="M 18,18 l 2.25,-7.5 m -2.25,7.5 l 5.25,1.5 " style="fill: none; stroke-width: 2px; stroke: black; stroke-linecap: square;"/><path d="M 18,18 m 0,7.5 l -0,2.25 " transform="rotate(0,18,18)" style="fill: none; stroke-width: 1px; stroke: black; stroke-linecap: square;"/><path d="M 18,18 m 0,7.5 l -0,2.25 " transform="rotate(30,18,18)" style="fill: none; stroke-width: 1px; stroke: black; stroke-linecap: square;"/><path d="M 18,18 m 0,7.5 l -0,2.25 " transform="rotate(60,18,18)" style="fill: none; stroke-width: 1px; stroke: black; stroke-linecap: square;"/><path d="M 18,18 m 0,7.5 l -0,2.25 " transform="rotate(90,18,18)" style="fill: none; stroke-width: 1px; stroke: black; stroke-linecap: square;"/><path d="M 18,18 m 0,7.5 l -0,2.25 " transform="rotate(120,18,18)" style="fill: none; stroke-width: 1px; stroke: black; stroke-linecap: square;"/><path d="M 18,18 m 0,7.5 l -0,2.25 " transform="rotate(150,18,18)" style="fill: none; stroke-width: 1px; stroke: black; stroke-linecap: square;"/><path d="M 18,18 m 0,7.5 l -0,2.25 " transform="rotate(180,18,18)" style="fill: none; stroke-width: 1px; stroke: black; stroke-linecap: square;"/><path d="M 18,18 m 0,7.5 l -0,2.25 " transform="rotate(210,18,18)" style="fill: none; stroke-width: 1px; stroke: black; stroke-linecap: square;"/><path d="M 18,18 m 0,7.5 l -0,2.25 " transform="rotate(240,18,18)" style="fill: none; stroke-width: 1px; stroke: black; stroke-linecap: square;"/><path d="M 18,18 m 0,7.5 l -0,2.25 " transform="rotate(270,18,18)" style="fill: none; stroke-width: 1px; stroke: black; stroke-linecap: square;"/><path d="M 18,18 m 0,7.5 l -0,2.25 " transform="rotate(300,18,18)" style="fill: none; stroke-width: 1px; stroke: black; stroke-linecap: square;"/><path d="M 18,18 m 0,7.5 l -0,2.25 " transform="rotate(330,18,18)" style="fill: none; stroke-width: 1px; stroke: black; stroke-linecap: square;"/></g><rect class="djs-hit djs-hit-all" x="0" y="0" width="36" height="36" style="fill: none; stroke-opacity: 0; stroke: white; stroke-width: 15px;"/><rect x="-6" y="-6" width="48" height="48" class="djs-outline" style="fill: none;"/></g></g><g class="djs-group"><g class="djs-element djs-shape" data-element-id="Event_1erejq2_label" style="display: block;" transform="matrix(1 0 0 1 785 373)"><g class="djs-visual"><text lineHeight="1.2" class="djs-label" style="font-family: Arial, sans-serif; font-size: 11px; font-weight: normal; fill: black;"><tspan x="0" y="9.899999999999999">Timeout</tspan></text></g><rect class="djs-hit djs-hit-all" x="0" y="0" width="40" height="14" style="fill: none; stroke-opacity: 0; stroke: white; stroke-width: 15px;"/><rect x="-6" y="-6" width="52" height="26" class="djs-outline" style="fill: none;"/></g></g><g class="djs-group"><g class="djs-element djs-shape" data-element-id="Event_1xncxmy" style="display: block;" transform="matrix(1 0 0 1 827 202)"><g class="djs-visual"><circle cx="18" cy="18" r="18" style="stroke: black; stroke-width: 1px; fill: white; fill-opacity: 1;"/><circle cx="18" cy="18" r="15" style="stroke: black; stroke-width: 1px; fill: none;"/><path d="m 7.2,25.991999999999997 0.09350000000000001,-0.025300000000000003 7.3392,-9.610700000000001 7.667000000000001,8.9661 4.7003,-18.2204 -5.8707,11.6501 -7.299600000000001,-9.585400000000002 z" style="fill: none; stroke-width: 1px; stroke: black;"/></g><rect class="djs-hit djs-hit-all" x="0" y="0" width="36" height="36" style="fill: none; stroke-opacity: 0; stroke: white; stroke-width: 15px;"/><rect x="-6" y="-6" width="48" height="48" class="djs-outline" style="fill: none;"/></g></g><g class="djs-group"><g class="djs-element djs-shape" data-element-id="Event_1xncxmy_label" style="display: block;" transform="matrix(1 0 0 1 767 233)"><g class="djs-visual"><text lineHeight="1.2" class="djs-label" style="font-family: Arial, sans-serif; font-size: 11px; font-weight: normal; fill: black;"><tspan x="0" y="9.899999999999999">Invalid data</tspan></text></g><rect class="djs-hit djs-hit-all" x="0" y="0" width="57" height="14" style="fill: none; stroke-opacity: 0; stroke: white; stroke-width: 15px;"/><rect x="-6" y="-6" width="69" height="26" class="djs-outline" style="fill: none;"/></g></g><g class="djs-group"><g class="djs-element djs-shape" data-element-id="Flow_0asohg2_label" style="display: block;" transform="matrix(1 0 0 1 1025 193)"><g class="djs-visual"><text lineHeight="1.2" class="djs-label" style="font-family: Arial, sans-serif; font-size: 11px; font-weight: normal; fill: black;"><tspan x="0" y="9.899999999999999">Yes</tspan></text></g><rect class="djs-hit djs-hit-all" x="0" y="0" width="19" height="14" style="fill: none; stroke-opacity: 0; stroke: white; stroke-width: 15px;"/><rect x="-6" y="-6" width="31" height="26" class="djs-outline" style="fill: none;"/></g></g><g class="djs-group"><g class="djs-element djs-shape" data-element-id="Flow_01v885t_label" style="display: block;" transform="matrix(1 0 0 1 1027 332)"><g class="djs-visual"><text lineHeight="1.2" class="djs-label" style="font-family: Arial, sans-serif; font-size: 11px; font-weight: normal; fill: black;"><tspan x="0" y="9.899999999999999">No</tspan></text></g><rect class="djs-hit djs-hit-all" x="0" y="0" width="15" height="14" style="fill: none; stroke-opacity: 0; stroke: white; stroke-width: 15px;"/><rect x="-6" y="-6" width="27" height="26" class="djs-outline" style="fill: none;"/></g></g></g></g><g class="djs-group"><g class="djs-element djs-shape" data-element-id="robot_spreadsheet" style="display: block;" transform="matrix(1 0 0 1 1476 140)"><g class="djs-visual"><rect x="0" y="0" width="100" height="80" rx="10" ry="10" style="stroke: black; stroke-width: 2px; fill: white; fill-opacity: 0.95;"/><text lineHeight="1.2" class="djs-label" style="font-family: Arial, sans-serif; font-size: 12px; font-weight: normal; fill: black;"><tspan x="9.984375" y="36.4">Save summary </tspan><tspan x="16.6435546875" y="50.8">spreadsheet</tspan></text><g transform="matrix(1 0 0 -1 5 5) translate(2.5 -7) scale(0.19759672977412224 0.19759672977412224)"><path id="path22" style="fill:#000000;fill-opacity:1;fill-rule:nonzero;stroke:none" d="m 0,0 c 0,7.6 6.179,13.779 13.77,13.779 7.6,0 13.779,-6.179 13.779,-13.779 0,-2.769 -2.238,-5.007 -4.998,-5.007 -2.761,0 -4.999,2.238 -4.999,5.007 0,2.078 -1.695,3.765 -3.782,3.765 C 11.693,3.765 9.997,2.078 9.997,0 9.997,-2.769 7.76,-5.007 4.999,-5.007 2.238,-5.007 0,-2.769 0,0 m 57.05,-23.153 c 0,-2.771 -2.237,-5.007 -4.998,-5.007 l -46.378,0 c -2.761,0 -4.999,2.236 -4.999,5.007 0,2.769 2.238,5.007 4.999,5.007 l 46.378,0 c 2.761,0 4.998,-2.238 4.998,-5.007 M 35.379,-2.805 c -1.545,2.291 -0.941,5.398 1.35,6.943 l 11.594,7.83 c 2.273,1.58 5.398,0.941 6.943,-1.332 1.545,-2.29 0.941,-5.398 -1.35,-6.943 l -11.594,-7.83 c -0.852,-0.586 -1.829,-0.87 -2.788,-0.87 -1.607,0 -3.187,0.781 -4.155,2.202 m 31.748,-30.786 c 0,-0.945 -0.376,-1.852 -1.045,-2.522 l -8.617,-8.617 c -0.669,-0.668 -1.576,-1.045 -2.523,-1.045 l -52.833,0 c -0.947,0 -1.854,0.377 -2.523,1.045 l -8.617,8.617 c -0.669,0.67 -1.045,1.577 -1.045,2.522 l 0,52.799 c 0,0.947 0.376,1.854 1.045,2.522 l 8.617,8.619 c 0.669,0.668 1.576,1.044 2.523,1.044 l 52.833,0 c 0.947,0 1.854,-0.376 2.523,-1.044 l 8.617,-8.619 c 0.669,-0.668 1.045,-1.575 1.045,-2.522 l 0,-52.799 z m 7.334,61.086 -11.25,11.25 c -1.705,1.705 -4.018,2.663 -6.428,2.663 l -56.523,0 c -2.412,0 -4.725,-0.959 -6.43,-2.665 L -17.412,27.494 c -1.704,-1.705 -2.661,-4.016 -2.661,-6.427 l 0,-56.515 c 0,-2.411 0.958,-4.725 2.663,-6.428 l 11.25,-11.25 c 1.705,-1.705 4.017,-2.662 6.428,-2.662 l 56.515,0 c 2.41,0 4.723,0.957 6.428,2.662 l 11.25,11.25 c 1.705,1.703 2.663,4.017 2.663,6.428 l 0,56.514 c 0,2.412 -0.958,4.724 -2.663,6.429"/></g></g><rect class="djs-hit djs-hit-all" x="0" y="0" width="100" height="80" style="fill: none; stroke-opacity: 0; stroke: white; stroke-width: 15px;"/><rect x="-6" y="-6" width="112" height="92" class="djs-outline" style="fill: none;"/></g></g><g class="djs-group"><g class="djs-element djs-shape" data-element-id="Event_0frxja4" style="display: block;" transform="matrix(1 0 0 1 1632 162)"><g class="djs-visual"><circle cx="18" cy="18" r="18" style="stroke: black; stroke-width: 4px; fill: white; fill-opacity: 0.95;"/></g><rect class="djs-hit djs-hit-all" x="0" y="0" width="36" height="36" style="fill: none; stroke-opacity: 0; stroke: white; stroke-width: 15px;"/><rect x="-6" y="-6" width="48" height="48" class="djs-outline" style="fill: none;"/></g></g><g class="djs-group"><g class="djs-element djs-shape" data-element-id="Event_0frxja4_label" style="display: block;" transform="matrix(1 0 0 1 1624 206)"><g class="djs-visual"><text lineHeight="1.2" class="djs-label" style="font-family: Arial, sans-serif; font-size: 11px; font-weight: normal; fill: black;"><tspan x="4.890625" y="9.899999999999999">Request </tspan><tspan x="0" y="23.099999999999998">completed</tspan></text></g><rect class="djs-hit djs-hit-all" x="0" y="0" width="51" height="27" style="fill: none; stroke-opacity: 0; stroke: white; stroke-width: 15px;"/><rect x="-6" y="-6" width="63" height="39" class="djs-outline" style="fill: none;"/></g></g></svg>