<?xml version="1.0" encoding="utf-8"?>
<!-- created with bpmn-js / http://bpmn.io -->
<!DOCTYPE svg PUBLIC "-//W3C//DTD SVG 1.1//EN" "http://www.w3.org/Graphics/SVG/1.1/DTD/svg11.dtd">
<svg xmlns="http://www.w3.org/2000/svg" xmlns:xlink="http://www.w3.org/1999/xlink" width="544" height="153" viewBox="152 76 544 153" version="1.1"><defs><marker id="sequenceflow-end-white-black-cwh9lrscblr14shbhlhz7ahqd" viewBox="0 0 20 20" refX="11" refY="10" markerWidth="10" markerHeight="10" orient="auto"><path d="M 1 5 L 11 10 L 1 15 Z" style="fill: black; stroke-width: 1px; stroke-linecap: round; stroke-dasharray: 10000, 1; stroke: black;"/></marker><marker id="conditional-default-flow-marker-white-black-cwh9lrscblr14shbhlhz7ahqd" viewBox="0 0 20 20" refX="0" refY="10" markerWidth="10" markerHeight="10" orient="auto"><path d="M 6 4 L 10 16" style="fill: black; stroke-width: 1px; stroke-linecap: round; stroke-dasharray: 10000, 1; stroke: black;"/></marker></defs><g class="djs-group"><g class="djs-element djs-connection" data-element-id="Flow_1b2nhko" style="display: block;"><g class="djs-visual"><path d="m  556,152L556,100 L292,100 L292,152 " style="fill: none; stroke-width: 2px; stroke: black; stroke-linejoin: round; marker-end: url('#sequenceflow-end-white-black-cwh9lrscblr14shbhlhz7ahqd'); marker-start: url('#conditional-default-flow-marker-white-black-cwh9lrscblr14shbhlhz7ahqd');"/></g><polyline points="556,152 556,100 292,100 292,152 " class="djs-hit djs-hit-stroke" style="fill: none; stroke-opacity: 0; stroke: white; stroke-width: 15px;"/><rect x="286" y="94" width="276" height="64" class="djs-outline" style="fill: none;"/></g></g><g class="djs-group"><g class="djs-element djs-connection" data-element-id="Flow_1nm5mds" style="display: block;"><g class="djs-visual"><path d="m  317,177L374,177 " style="fill: none; stroke-width: 2px; stroke: black; stroke-linejoin: round; marker-end: url('#sequenceflow-end-white-black-cwh9lrscblr14shbhlhz7ahqd');"/></g><polyline points="317,177 374,177 " class="djs-hit djs-hit-stroke" style="fill: none; stroke-opacity: 0; stroke: white; stroke-width: 15px;"/><rect x="311" y="171" width="69" height="12" class="djs-outline" style="fill: none;"/></g></g><g class="djs-group"><g class="djs-element djs-connection" data-element-id="Flow_1162011" style="display: block;"><g class="djs-visual"><path d="m  581,177L632,177 " style="fill: none; stroke-width: 2px; stroke: black; stroke-linejoin: round; marker-end: url('#sequenceflow-end-white-black-cwh9lrscblr14shbhlhz7ahqd');"/></g><polyline points="581,177 632,177 " class="djs-hit djs-hit-stroke" style="fill: none; stroke-opacity: 0; stroke: white; stroke-width: 15px;"/><rect x="575" y="171" width="63" height="12" class="djs-outline" style="fill: none;"/></g></g><g class="djs-group"><g class="djs-element djs-connection" data-element-id="Flow_0vkksdo" style="display: block;"><g class="djs-visual"><path d="m  474,177L531,177 " style="fill: none; stroke-width: 2px; stroke: black; stroke-linejoin: round; marker-end: url('#sequenceflow-end-white-black-cwh9lrscblr14shbhlhz7ahqd');"/></g><polyline points="474,177 531,177 " class="djs-hit djs-hit-stroke" style="fill: none; stroke-opacity: 0; stroke: white; stroke-width: 15px;"/><rect x="468" y="171" width="69" height="12" class="djs-outline" style="fill: none;"/></g></g><g class="djs-group"><g class="djs-element djs-connection" data-element-id="Flow_1ldfjne" style="display: block;"><g class="djs-visual"><path d="m  215,177L267,177 " style="fill: none; stroke-width: 2px; stroke: black; stroke-linejoin: round; marker-end: url('#sequenceflow-end-white-black-cwh9lrscblr14shbhlhz7ahqd');"/></g><polyline points="215,177 267,177 " class="djs-hit djs-hit-stroke" style="fill: none; stroke-opacity: 0; stroke: white; stroke-width: 15px;"/><rect x="209" y="171" width="64" height="12" class="djs-outline" style="fill: none;"/></g></g><g class="djs-group"><g class="djs-element djs-shape" data-element-id="StartEvent_1" style="display: block;" transform="matrix(1 0 0 1 179 159)"><g class="djs-visual"><circle cx="18" cy="18" r="18" style="stroke: black; stroke-width: 2px; fill: white; fill-opacity: 0.95;"/></g><rect class="djs-hit djs-hit-all" x="0" y="0" width="36" height="36" style="fill: none; stroke-opacity: 0; stroke: white; stroke-width: 15px;"/><rect x="-6" y="-6" width="48" height="48" class="djs-outline" style="fill: none;"/></g></g><g class="djs-group"><g class="djs-element djs-shape" data-element-id="StartEvent_1_label" style="display: block;" transform="matrix(1 0 0 1 158 202)"><g class="djs-visual"><text lineHeight="1.2" class="djs-label" style="font-family: Arial, sans-serif; font-size: 11px; font-weight: normal; fill: black;"><tspan x="0" y="9.899999999999999">Work requested</tspan></text></g><rect class="djs-hit djs-hit-all" x="0" y="0" width="78" height="14" style="fill: none; stroke-opacity: 0; stroke: white; stroke-width: 15px;"/><rect x="-6" y="-6" width="90" height="26" class="djs-outline" style="fill: none;"/></g></g><g class="djs-group"><g class="djs-element djs-shape" data-element-id="Robot_Work" style="display: block;" transform="matrix(1 0 0 1 374 137)"><g class="djs-visual"><rect x="0" y="0" width="100" height="80" rx="10" ry="10" style="stroke: black; stroke-width: 2px; fill: white; fill-opacity: 0.95;"/><text lineHeight="1.2" class="djs-label" style="font-family: Arial, sans-serif; font-size: 12px; font-weight: normal; fill: black;"><tspan x="36.109375" y="43.599999999999994">Work</tspan></text><g transform="matrix(1 0 0 -1 5 5) translate(2.5 -7) scale(0.19759672977412224 0.19759672977412224)"><path id="path22" style="fill:#000000;fill-opacity:1;fill-rule:nonzero;stroke:none" d="m 0,0 c 0,7.6 6.179,13.779 13.77,13.779 7.6,0 13.779,-6.179 13.779,-13.779 0,-2.769 -2.238,-5.007 -4.998,-5.007 -2.761,0 -4.999,2.238 -4.999,5.007 0,2.078 -1.695,3.765 -3.782,3.765 C 11.693,3.765 9.997,2.078 9.997,0 9.997,-2.769 7.76,-5.007 4.999,-5.007 2.238,-5.007 0,-2.769 0,0 m 57.05,-23.153 c 0,-2.771 -2.237,-5.007 -4.998,-5.007 l -46.378,0 c -2.761,0 -4.999,2.236 -4.999,5.007 0,2.769 2.238,5.007 4.999,5.007 l 46.378,0 c 2.761,0 4.998,-2.238 4.998,-5.007 M 35.379,-2.805 c -1.545,2.291 -0.941,5.398 1.35,6.943 l 11.594,7.83 c 2.273,1.58 5.398,0.941 6.943,-1.332 1.545,-2.29 0.941,-5.398 -1.35,-6.943 l -11.594,-7.83 c -0.852,-0.586 -1.829,-0.87 -2.788,-0.87 -1.607,0 -3.187,0.781 -4.155,2.202 m 31.748,-30.786 c 0,-0.945 -0.376,-1.852 -1.045,-2.522 l -8.617,-8.617 c -0.669,-0.668 -1.576,-1.045 -2.523,-1.045 l -52.833,0 c -0.947,0 -1.854,0.377 -2.523,1.045 l -8.617,8.617 c -0.669,0.67 -1.045,1.577 -1.045,2.522 l 0,52.799 c 0,0.947 0.376,1.854 1.045,2.522 l 8.617,8.619 c 0.669,0.668 1.576,1.044 2.523,1.044 l 52.833,0 c 0.947,0 1.854,-0.376 2.523,-1.044 l 8.617,-8.619 c 0.669,-0.668 1.045,-1.575 1.045,-2.522 l 0,-52.799 z m 7.334,61.086 -11.25,11.25 c -1.705,1.705 -4.018,2.663 -6.428,2.663 l -56.523,0 c -2.412,0 -4.725,-0.959 -6.43,-2.665 L -17.412,27.494 c -1.704,-1.705 -2.661,-4.016 -2.661,-6.427 l 0,-56.515 c 0,-2.411 0.958,-4.725 2.663,-6.428 l 11.25,-11.25 c 1.705,-1.705 4.017,-2.662 6.428,-2.662 l 56.515,0 c 2.41,0 4.723,0.957 6.428,2.662 l 11.25,11.25 c 1.705,1.703 2.663,4.017 2.663,6.428 l 0,56.514 c 0,2.412 -0.958,4.724 -2.663,6.429"/></g></g><rect class="djs-hit djs-hit-all" x="0" y="0" width="100" height="80" style="fill: none; stroke-opacity: 0; stroke: white; stroke-width: 15px;"/><rect x="-6" y="-6" width="112" height="92" class="djs-outline" style="fill: none;"/></g></g><g class="djs-group"><g class="djs-element djs-shape" data-element-id="Gateway_111hplm" style="display: block;" transform="matrix(1 0 0 1 531 152)"><g class="djs-visual"><polygon points="25,0 50,25 25,50 0,25" style="stroke: black; stroke-width: 2px; fill: white; fill-opacity: 0.95;"/><path d="m 16,15 7.42857142857143,9.714285714285715 -7.42857142857143,9.714285714285715 3.428571428571429,0 5.714285714285715,-7.464228571428572 5.714285714285715,7.464228571428572 3.428571428571429,0 -7.42857142857143,-9.714285714285715 7.42857142857143,-9.714285714285715 -3.428571428571429,0 -5.714285714285715,7.464228571428572 -5.714285714285715,-7.464228571428572 -3.428571428571429,0 z" style="fill: black; stroke-width: 1px; stroke: black;"/></g><rect class="djs-hit djs-hit-all" x="0" y="0" width="50" height="50" style="fill: none; stroke-opacity: 0; stroke: white; stroke-width: 15px;"/><rect x="-6" y="-6" width="62" height="62" class="djs-outline" style="fill: none;"/></g></g><g class="djs-group"><g class="djs-element djs-shape" data-element-id="Gateway_111hplm_label" style="display: block;" transform="matrix(1 0 0 1 526 209)"><g class="djs-visual"><text lineHeight="1.2" class="djs-label" style="font-family: Arial, sans-serif; font-size: 11px; font-weight: normal; fill: black;"><tspan x="0" y="9.899999999999999">Completed?</tspan></text></g><rect class="djs-hit djs-hit-all" x="0" y="0" width="60" height="14" style="fill: none; stroke-opacity: 0; stroke: white; stroke-width: 15px;"/><rect x="-6" y="-6" width="72" height="26" class="djs-outline" style="fill: none;"/></g></g><g class="djs-group"><g class="djs-element djs-shape" data-element-id="Event_0dla07c" style="display: block;" transform="matrix(1 0 0 1 632 159)"><g class="djs-visual"><circle cx="18" cy="18" r="18" style="stroke: black; stroke-width: 4px; fill: white; fill-opacity: 0.95;"/></g><rect class="djs-hit djs-hit-all" x="0" y="0" width="36" height="36" style="fill: none; stroke-opacity: 0; stroke: white; stroke-width: 15px;"/><rect x="-6" y="-6" width="48" height="48" class="djs-outline" style="fill: none;"/></g></g><g class="djs-group"><g class="djs-element djs-shape" data-element-id="Event_0dla07c_label" style="display: block;" transform="matrix(1 0 0 1 610 202)"><g class="djs-visual"><text lineHeight="1.2" class="djs-label" style="font-family: Arial, sans-serif; font-size: 11px; font-weight: normal; fill: black;"><tspan x="0" y="9.899999999999999">Work completed</tspan></text></g><rect class="djs-hit djs-hit-all" x="0" y="0" width="80" height="14" style="fill: none; stroke-opacity: 0; stroke: white; stroke-width: 15px;"/><rect x="-6" y="-6" width="92" height="26" class="djs-outline" style="fill: none;"/></g></g><g class="djs-group"><g class="djs-element djs-shape" data-element-id="Gateway_096qfbz" style="display: block;" transform="matrix(1 0 0 1 267 152)"><g class="djs-visual"><polygon points="25,0 50,25 25,50 0,25" style="stroke: black; stroke-width: 2px; fill: white; fill-opacity: 0.95;"/><path d="m 16,15 7.42857142857143,9.714285714285715 -7.42857142857143,9.714285714285715 3.428571428571429,0 5.714285714285715,-7.464228571428572 5.714285714285715,7.464228571428572 3.428571428571429,0 -7.42857142857143,-9.714285714285715 7.42857142857143,-9.714285714285715 -3.428571428571429,0 -5.714285714285715,7.464228571428572 -5.714285714285715,-7.464228571428572 -3.428571428571429,0 z" style="fill: black; stroke-width: 1px; stroke: black;"/></g><rect class="djs-hit djs-hit-all" x="0" y="0" width="50" height="50" style="fill: none; stroke-opacity: 0; stroke: white; stroke-width: 15px;"/><rect x="-6" y="-6" width="62" height="62" class="djs-outline" style="fill: none;"/></g></g><g class="djs-group"><g class="djs-element djs-shape" data-element-id="Flow_1162011_label" style="display: block;" transform="matrix(1 0 0 1 597 159)"><g class="djs-visual"><text lineHeight="1.2" class="djs-label" style="font-family: Arial, sans-serif; font-size: 11px; font-weight: normal; fill: black;"><tspan x="0" y="9.899999999999999">Yes</tspan></text></g><rect class="djs-hit djs-hit-all" x="0" y="0" width="19" height="14" style="fill: none; stroke-opacity: 0; stroke: white; stroke-width: 15px;"/><rect x="-6" y="-6" width="31" height="26" class="djs-outline" style="fill: none;"/></g></g><g class="djs-group"><g class="djs-element djs-shape" data-element-id="Flow_1b2nhko_label" style="display: block;" transform="matrix(1 0 0 1 417 82)"><g class="djs-visual"><text lineHeight="1.2" class="djs-label" style="font-family: Arial, sans-serif; font-size: 11px; font-weight: normal; fill: black;"><tspan x="0" y="9.899999999999999">No</tspan></text></g><rect class="djs-hit djs-hit-all" x="0" y="0" width="15" height="14" style="fill: none; stroke-opacity: 0; stroke: white; stroke-width: 15px;"/><rect x="-6" y="-6" width="27" height="26" class="djs-outline" style="fill: none;"/></g></g></svg>