<?xml version="1.0" encoding="utf-8"?>
<!-- created with bpmn-js / http://bpmn.io -->
<!DOCTYPE svg PUBLIC "-//W3C//DTD SVG 1.1//EN" "http://www.w3.org/Graphics/SVG/1.1/DTD/svg11.dtd">
<svg xmlns="http://www.w3.org/2000/svg" xmlns:xlink="http://www.w3.org/1999/xlink" width="317" height="92" viewBox="165 71 317 92" version="1.1"><defs><marker id="sequenceflow-end-white-black-33h2opushbc4u2m00pahb3oj5" viewBox="0 0 20 20" refX="11" refY="10" markerWidth="10" markerHeight="10" orient="auto"><path d="M 1 5 L 11 10 L 1 15 Z" style="fill: black; stroke-width: 1px; stroke-linecap: round; stroke-dasharray: 10000, 1; stroke: black;"/></marker></defs><g class="djs-group"><g class="djs-element djs-connection" data-element-id="Flow_0fhvqif" style="display: block;"><g class="djs-visual"><path d="m  370,117L432,117 " style="fill: none; stroke-width: 2px; stroke: black; stroke-linejoin: round; marker-end: url('#sequenceflow-end-white-black-33h2opushbc4u2m00pahb3oj5');"/></g><polyline points="370,117 432,117 " class="djs-hit djs-hit-stroke" style="fill: none; stroke-opacity: 0; stroke: white; stroke-width: 15px;"/><rect x="364" y="111" width="74" height="12" class="djs-outline" style="fill: none;"/></g></g><g class="djs-group"><g class="djs-element djs-connection" data-element-id="Flow_13drrwz" style="display: block;"><g class="djs-visual"><path d="m  215,117L270,117 " style="fill: none; stroke-width: 2px; stroke: black; stroke-linejoin: round; marker-end: url('#sequenceflow-end-white-black-33h2opushbc4u2m00pahb3oj5');"/></g><polyline points="215,117 270,117 " class="djs-hit djs-hit-stroke" style="fill: none; stroke-opacity: 0; stroke: white; stroke-width: 15px;"/><rect x="209" y="111" width="67" height="12" class="djs-outline" style="fill: none;"/></g></g><g class="djs-group"><g class="djs-element djs-shape" data-element-id="StartEvent_1" style="display: block;" transform="matrix(1 0 0 1 179 99)"><g class="djs-visual"><circle cx="18" cy="18" r="18" style="stroke: black; stroke-width: 2px; fill: white; fill-opacity: 0.95;"/></g><rect class="djs-hit djs-hit-all" x="0" y="0" width="36" height="36" style="fill: none; stroke-opacity: 0; stroke: white; stroke-width: 15px;"/><rect x="-6" y="-6" width="48" height="48" class="djs-outline" style="fill: none;"/></g></g><g class="djs-group"><g class="djs-element djs-shape" data-element-id="StartEvent_1_label" style="display: block;" transform="matrix(1 0 0 1 171 142)"><g class="djs-visual"><text lineHeight="1.2" class="djs-label" style="font-family: Arial, sans-serif; font-size: 11px; font-weight: normal; fill: black;"><tspan x="0" y="9.899999999999999">Start event</tspan></text></g><rect class="djs-hit djs-hit-all" x="0" y="0" width="54" height="14" style="fill: none; stroke-opacity: 0; stroke: white; stroke-width: 15px;"/><rect x="-6" y="-6" width="66" height="26" class="djs-outline" style="fill: none;"/></g></g><g class="djs-group"><g class="djs-element djs-shape" data-element-id="Activity_1y9gpn5" style="display: block;" transform="matrix(1 0 0 1 270 77)"><g class="djs-visual"><rect x="0" y="0" width="100" height="80" rx="10" ry="10" style="stroke: black; stroke-width: 2px; fill: white; fill-opacity: 0.95;"/><text lineHeight="1.2" class="djs-label" style="font-family: Arial, sans-serif; font-size: 12px; font-weight: normal; fill: black;"><tspan x="37.65625" y="43.599999999999994">Task</tspan></text></g><rect class="djs-hit djs-hit-all" x="0" y="0" width="100" height="80" style="fill: none; stroke-opacity: 0; stroke: white; stroke-width: 15px;"/><rect x="-6" y="-6" width="112" height="92" class="djs-outline" style="fill: none;"/></g></g><g class="djs-group"><g class="djs-element djs-shape" data-element-id="Event_179yhsy" style="display: block;" transform="matrix(1 0 0 1 432 99)"><g class="djs-visual"><circle cx="18" cy="18" r="18" style="stroke: black; stroke-width: 4px; fill: white; fill-opacity: 0.95;"/></g><rect class="djs-hit djs-hit-all" x="0" y="0" width="36" height="36" style="fill: none; stroke-opacity: 0; stroke: white; stroke-width: 15px;"/><rect x="-6" y="-6" width="48" height="48" class="djs-outline" style="fill: none;"/></g></g><g class="djs-group"><g class="djs-element djs-shape" data-element-id="Event_179yhsy_label" style="display: block;" transform="matrix(1 0 0 1 426 142)"><g class="djs-visual"><text lineHeight="1.2" class="djs-label" style="font-family: Arial, sans-serif; font-size: 11px; font-weight: normal; fill: black;"><tspan x="0" y="9.899999999999999">End event</tspan></text></g><rect class="djs-hit djs-hit-all" x="0" y="0" width="50" height="14" style="fill: none; stroke-opacity: 0; stroke: white; stroke-width: 15px;"/><rect x="-6" y="-6" width="62" height="26" class="djs-outline" style="fill: none;"/></g></g></svg>