<?xml version="1.0" encoding="utf-8"?>
<!-- created with bpmn-js / http://bpmn.io -->
<!DOCTYPE svg PUBLIC "-//W3C//DTD SVG 1.1//EN" "http://www.w3.org/Graphics/SVG/1.1/DTD/svg11.dtd">
<svg xmlns="http://www.w3.org/2000/svg" xmlns:xlink="http://www.w3.org/1999/xlink" width="865" height="212" viewBox="146 71 865 212" version="1.1"><defs><marker id="sequenceflow-end-white-black-bmaifzqo3m8kr1s2vmm2pxjrb" viewBox="0 0 20 20" refX="11" refY="10" markerWidth="10" markerHeight="10" orient="auto"><path d="M 1 5 L 11 10 L 1 15 Z" style="fill: black; stroke-width: 1px; stroke-linecap: round; stroke-dasharray: 10000, 1; stroke: black;"/></marker></defs><g class="djs-group"><g class="djs-element djs-connection" data-element-id="Flow_1phbacx" style="display: block;"><g class="djs-visual"><path d="m  884,177L942,177 " style="fill: none; stroke-width: 2px; stroke: black; stroke-linejoin: round; marker-end: url('#sequenceflow-end-white-black-bmaifzqo3m8kr1s2vmm2pxjrb');"/></g><polyline points="884,177 942,177 " class="djs-hit djs-hit-stroke" style="fill: none; stroke-opacity: 0; stroke: white; stroke-width: 15px;"/><rect x="878" y="171" width="70" height="12" class="djs-outline" style="fill: none;"/></g></g><g class="djs-group"><g class="djs-element djs-connection" data-element-id="Flow_1e6sf7f" style="display: block;"><g class="djs-visual"><path d="m  784,177L848,177 " style="fill: none; stroke-width: 2px; stroke: black; stroke-linejoin: round; marker-end: url('#sequenceflow-end-white-black-bmaifzqo3m8kr1s2vmm2pxjrb');"/></g><polyline points="784,177 848,177 " class="djs-hit djs-hit-stroke" style="fill: none; stroke-opacity: 0; stroke: white; stroke-width: 15px;"/><rect x="778" y="171" width="76" height="12" class="djs-outline" style="fill: none;"/></g></g><g class="djs-group"><g class="djs-element djs-connection" data-element-id="Flow_1wqgwwq" style="display: block;"><g class="djs-visual"><path d="m  215,177L274,177 " style="fill: none; stroke-width: 2px; stroke: black; stroke-linejoin: round; marker-end: url('#sequenceflow-end-white-black-bmaifzqo3m8kr1s2vmm2pxjrb');"/></g><polyline points="215,177 274,177 " class="djs-hit djs-hit-stroke" style="fill: none; stroke-opacity: 0; stroke: white; stroke-width: 15px;"/><rect x="209" y="171" width="71" height="12" class="djs-outline" style="fill: none;"/></g></g><g class="djs-group"><g class="djs-element djs-shape" data-element-id="StartEvent_1" style="display: block;" transform="matrix(1 0 0 1 179 159)"><g class="djs-visual"><circle cx="18" cy="18" r="18" style="stroke: black; stroke-width: 2px; fill: white; fill-opacity: 0.95;"/></g><rect class="djs-hit djs-hit-all" x="0" y="0" width="36" height="36" style="fill: none; stroke-opacity: 0; stroke: white; stroke-width: 15px;"/><rect x="-6" y="-6" width="48" height="48" class="djs-outline" style="fill: none;"/></g></g><g class="djs-group"><g class="djs-element djs-shape" data-element-id="StartEvent_1_label" style="display: block;" transform="matrix(1 0 0 1 152 202)"><g class="djs-visual"><text lineHeight="1.2" class="djs-label" style="font-family: Arial, sans-serif; font-size: 11px; font-weight: normal; fill: black;"><tspan x="0" y="9.899999999999999">Speech requested</tspan></text></g><rect class="djs-hit djs-hit-all" x="0" y="0" width="90" height="14" style="fill: none; stroke-opacity: 0; stroke: white; stroke-width: 15px;"/><rect x="-6" y="-6" width="102" height="26" class="djs-outline" style="fill: none;"/></g></g><g class="djs-group"><g class="djs-element djs-shape" data-element-id="Activity_0x56u4i" style="display: block;" transform="matrix(1 0 0 1 274 77)"><g class="djs-visual"><rect x="0" y="0" width="510" height="200" rx="10" ry="10" style="stroke: black; stroke-width: 2px; fill: white; fill-opacity: 0.95;"/><text lineHeight="1.2" class="djs-label" style="font-family: Arial, sans-serif; font-size: 12px; font-weight: normal; fill: black;"><tspan x="255" y="15.799999999999999"/></text><path d="m249,180 m 3,2 l 0,10 m 3,-10 l 0,10 m 3,-10 l 0,10" data-marker="parallel" style="fill: white; stroke-width: 2px; stroke: black;"/></g><rect class="djs-hit djs-hit-all" x="0" y="0" width="510" height="200" style="fill: none; stroke-opacity: 0; stroke: white; stroke-width: 15px;"/><rect x="-6" y="-6" width="522" height="212" class="djs-outline" style="fill: none;"/></g><g class="djs-children"><g class="djs-group"><g class="djs-element djs-connection" data-element-id="Flow_0i7wpxi" style="display: block;"><g class="djs-visual"><path d="m  654,177L716,177 " style="fill: none; stroke-width: 2px; stroke: black; stroke-linejoin: round; marker-end: url('#sequenceflow-end-white-black-bmaifzqo3m8kr1s2vmm2pxjrb');"/></g><polyline points="654,177 716,177 " class="djs-hit djs-hit-stroke" style="fill: none; stroke-opacity: 0; stroke: white; stroke-width: 15px;"/><rect x="648" y="171" width="74" height="12" class="djs-outline" style="fill: none;"/></g></g><g class="djs-group"><g class="djs-element djs-connection" data-element-id="Flow_1u7e580" style="display: block;"><g class="djs-visual"><path d="m  494,177L554,177 " style="fill: none; stroke-width: 2px; stroke: black; stroke-linejoin: round; marker-end: url('#sequenceflow-end-white-black-bmaifzqo3m8kr1s2vmm2pxjrb');"/></g><polyline points="494,177 554,177 " class="djs-hit djs-hit-stroke" style="fill: none; stroke-opacity: 0; stroke: white; stroke-width: 15px;"/><rect x="488" y="171" width="72" height="12" class="djs-outline" style="fill: none;"/></g></g><g class="djs-group"><g class="djs-element djs-connection" data-element-id="Flow_1dsl0bk" style="display: block;"><g class="djs-visual"><path d="m  340,177L394,177 " style="fill: none; stroke-width: 2px; stroke: black; stroke-linejoin: round; marker-end: url('#sequenceflow-end-white-black-bmaifzqo3m8kr1s2vmm2pxjrb');"/></g><polyline points="340,177 394,177 " class="djs-hit djs-hit-stroke" style="fill: none; stroke-opacity: 0; stroke: white; stroke-width: 15px;"/><rect x="334" y="171" width="66" height="12" class="djs-outline" style="fill: none;"/></g></g><g class="djs-group"><g class="djs-element djs-shape" data-element-id="Event_0yn7dnh" style="display: block;" transform="matrix(1 0 0 1 304 159)"><g class="djs-visual"><circle cx="18" cy="18" r="18" style="stroke: black; stroke-width: 2px; fill: white; fill-opacity: 0.95;"/></g><rect class="djs-hit djs-hit-all" x="0" y="0" width="36" height="36" style="fill: none; stroke-opacity: 0; stroke: white; stroke-width: 15px;"/><rect x="-6" y="-6" width="48" height="48" class="djs-outline" style="fill: none;"/></g></g><g class="djs-group"><g class="djs-element djs-shape" data-element-id="Event_0yn7dnh_label" style="display: block;" transform="matrix(1 0 0 1 298 202)"><g class="djs-visual"><text lineHeight="1.2" class="djs-label" style="font-family: Arial, sans-serif; font-size: 11px; font-weight: normal; fill: black;"><tspan x="1.2265625" y="9.899999999999999">Sentence </tspan><tspan x="0" y="23.099999999999998">requested</tspan></text></g><rect class="djs-hit djs-hit-all" x="0" y="0" width="49" height="27" style="fill: none; stroke-opacity: 0; stroke: white; stroke-width: 15px;"/><rect x="-6" y="-6" width="61" height="39" class="djs-outline" style="fill: none;"/></g></g><g class="djs-group"><g class="djs-element djs-shape" data-element-id="Event_0wcsqf7" style="display: block;" transform="matrix(1 0 0 1 716 159)"><g class="djs-visual"><circle cx="18" cy="18" r="18" style="stroke: black; stroke-width: 4px; fill: white; fill-opacity: 0.95;"/></g><rect class="djs-hit djs-hit-all" x="0" y="0" width="36" height="36" style="fill: none; stroke-opacity: 0; stroke: white; stroke-width: 15px;"/><rect x="-6" y="-6" width="48" height="48" class="djs-outline" style="fill: none;"/></g></g><g class="djs-group"><g class="djs-element djs-shape" data-element-id="Event_0wcsqf7_label" style="display: block;" transform="matrix(1 0 0 1 711 202)"><g class="djs-visual"><text lineHeight="1.2" class="djs-label" style="font-family: Arial, sans-serif; font-size: 11px; font-weight: normal; fill: black;"><tspan x="0" y="9.899999999999999">Sentence </tspan><tspan x="2.75" y="23.099999999999998">selected</tspan></text></g><rect class="djs-hit djs-hit-all" x="0" y="0" width="47" height="27" style="fill: none; stroke-opacity: 0; stroke: white; stroke-width: 15px;"/><rect x="-6" y="-6" width="59" height="39" class="djs-outline" style="fill: none;"/></g></g><g class="djs-group"><g class="djs-element djs-shape" data-element-id="Robot_D20" style="display: block;" transform="matrix(1 0 0 1 394 137)"><g class="djs-visual"><rect x="0" y="0" width="100" height="80" rx="10" ry="10" style="stroke: black; stroke-width: 2px; fill: white; fill-opacity: 0.95;"/><text lineHeight="1.2" class="djs-label" style="font-family: Arial, sans-serif; font-size: 12px; font-weight: normal; fill: black;"><tspan x="20.4931640625" y="43.599999999999994">Throw D20</tspan></text><g transform="matrix(1 0 0 -1 5 5) translate(2.5 -7) scale(0.19759672977412224 0.19759672977412224)"><path id="path22" style="fill:#000000;fill-opacity:1;fill-rule:nonzero;stroke:none" d="m 0,0 c 0,7.6 6.179,13.779 13.77,13.779 7.6,0 13.779,-6.179 13.779,-13.779 0,-2.769 -2.238,-5.007 -4.998,-5.007 -2.761,0 -4.999,2.238 -4.999,5.007 0,2.078 -1.695,3.765 -3.782,3.765 C 11.693,3.765 9.997,2.078 9.997,0 9.997,-2.769 7.76,-5.007 4.999,-5.007 2.238,-5.007 0,-2.769 0,0 m 57.05,-23.153 c 0,-2.771 -2.237,-5.007 -4.998,-5.007 l -46.378,0 c -2.761,0 -4.999,2.236 -4.999,5.007 0,2.769 2.238,5.007 4.999,5.007 l 46.378,0 c 2.761,0 4.998,-2.238 4.998,-5.007 M 35.379,-2.805 c -1.545,2.291 -0.941,5.398 1.35,6.943 l 11.594,7.83 c 2.273,1.58 5.398,0.941 6.943,-1.332 1.545,-2.29 0.941,-5.398 -1.35,-6.943 l -11.594,-7.83 c -0.852,-0.586 -1.829,-0.87 -2.788,-0.87 -1.607,0 -3.187,0.781 -4.155,2.202 m 31.748,-30.786 c 0,-0.945 -0.376,-1.852 -1.045,-2.522 l -8.617,-8.617 c -0.669,-0.668 -1.576,-1.045 -2.523,-1.045 l -52.833,0 c -0.947,0 -1.854,0.377 -2.523,1.045 l -8.617,8.617 c -0.669,0.67 -1.045,1.577 -1.045,2.522 l 0,52.799 c 0,0.947 0.376,1.854 1.045,2.522 l 8.617,8.619 c 0.669,0.668 1.576,1.044 2.523,1.044 l 52.833,0 c 0.947,0 1.854,-0.376 2.523,-1.044 l 8.617,-8.619 c 0.669,-0.668 1.045,-1.575 1.045,-2.522 l 0,-52.799 z m 7.334,61.086 -11.25,11.25 c -1.705,1.705 -4.018,2.663 -6.428,2.663 l -56.523,0 c -2.412,0 -4.725,-0.959 -6.43,-2.665 L -17.412,27.494 c -1.704,-1.705 -2.661,-4.016 -2.661,-6.427 l 0,-56.515 c 0,-2.411 0.958,-4.725 2.663,-6.428 l 11.25,-11.25 c 1.705,-1.705 4.017,-2.662 6.428,-2.662 l 56.515,0 c 2.41,0 4.723,0.957 6.428,2.662 l 11.25,11.25 c 1.705,1.703 2.663,4.017 2.663,6.428 l 0,56.514 c 0,2.412 -0.958,4.724 -2.663,6.429"/></g></g><rect class="djs-hit djs-hit-all" x="0" y="0" width="100" height="80" style="fill: none; stroke-opacity: 0; stroke: white; stroke-width: 15px;"/><rect x="-6" y="-6" width="112" height="92" class="djs-outline" style="fill: none;"/></g></g><g class="djs-group"><g class="djs-element djs-shape" data-element-id="Activity_1ph4nhu" style="display: block;" transform="matrix(1 0 0 1 554 137)"><g class="djs-visual"><rect x="0" y="0" width="100" height="80" rx="10" ry="10" style="stroke: black; stroke-width: 2px; fill: white; fill-opacity: 0.95;"/><text lineHeight="1.2" class="djs-label" style="font-family: Arial, sans-serif; font-size: 12px; font-weight: normal; fill: black;"><tspan x="7.4794921875" y="43.599999999999994">Pick a sentence</tspan></text><path d="m 8,8 0,4 20,0 0,-4 z" style="fill: rgb(170, 170, 170); stroke-width: 1px; stroke: black;"/><path d="m 8,8 0,12 20,0 0,-12 zm 0,8 l 20,0 m -13,-4 l 0,8" style="fill: none; stroke-width: 1px; stroke: black;"/></g><rect class="djs-hit djs-hit-all" x="0" y="0" width="100" height="80" style="fill: none; stroke-opacity: 0; stroke: white; stroke-width: 15px;"/><rect x="-6" y="-6" width="112" height="92" class="djs-outline" style="fill: none;"/></g></g></g></g><g class="djs-group"><g class="djs-element djs-shape" data-element-id="Event_1a012fd" style="display: block;" transform="matrix(1 0 0 1 942 159)"><g class="djs-visual"><circle cx="18" cy="18" r="18" style="stroke: black; stroke-width: 4px; fill: white; fill-opacity: 0.95;"/></g><rect class="djs-hit djs-hit-all" x="0" y="0" width="36" height="36" style="fill: none; stroke-opacity: 0; stroke: white; stroke-width: 15px;"/><rect x="-6" y="-6" width="48" height="48" class="djs-outline" style="fill: none;"/></g></g><g class="djs-group"><g class="djs-element djs-shape" data-element-id="Event_1a012fd_label" style="display: block;" transform="matrix(1 0 0 1 915 202)"><g class="djs-visual"><text lineHeight="1.2" class="djs-label" style="font-family: Arial, sans-serif; font-size: 11px; font-weight: normal; fill: black;"><tspan x="0" y="9.899999999999999">Speech generated</tspan></text></g><rect class="djs-hit djs-hit-all" x="0" y="0" width="90" height="14" style="fill: none; stroke-opacity: 0; stroke: white; stroke-width: 15px;"/><rect x="-6" y="-6" width="102" height="26" class="djs-outline" style="fill: none;"/></g></g><g class="djs-group"><g class="djs-element djs-shape" data-element-id="Event_1jyil2t" style="display: block;" transform="matrix(1 0 0 1 848 159)"><g class="djs-visual"><circle cx="18" cy="18" r="18" style="stroke: black; stroke-width: 1px; fill: white; fill-opacity: 0.95;"/><circle cx="18" cy="18" r="15" style="stroke: black; stroke-width: 1px; fill: none;"/></g><rect class="djs-hit djs-hit-all" x="0" y="0" width="36" height="36" style="fill: none; stroke-opacity: 0; stroke: white; stroke-width: 15px;"/><rect x="-6" y="-6" width="48" height="48" class="djs-outline" style="fill: none;"/></g></g><g class="djs-group"><g class="djs-element djs-shape" data-element-id="Event_1jyil2t_label" style="display: block;" transform="matrix(1 0 0 1 830 202)"><g class="djs-visual"><text lineHeight="1.2" class="djs-label" style="font-family: Arial, sans-serif; font-size: 11px; font-weight: normal; fill: black;"><tspan x="0" y="9.899999999999999">Join sencentes</tspan></text></g><rect class="djs-hit djs-hit-all" x="0" y="0" width="74" height="14" style="fill: none; stroke-opacity: 0; stroke: white; stroke-width: 15px;"/><rect x="-6" y="-6" width="86" height="26" class="djs-outline" style="fill: none;"/></g></g></svg>